<svg width="550" height="550" viewBox="0 0 550 550" fill="none" xmlns="http://www.w3.org/2000/svg">
<g clip-path="url(#clip0_1_819)">
<g clip-path="url(#clip1_1_819)">
<path d="M80.1513 215.117C76.8829 159.041 109.988 108.336 154.234 91.8467C182.654 81.2555 219.204 84.6077 245.204 100.065C284.511 123.433 270.208 156.932 306.758 177.894C343.403 198.91 371.322 173.003 414.07 193.363C459.637 215.066 470.955 265.003 472.356 271.676C483.118 322.952 454.158 377.351 403.72 404.614C332.414 443.157 238.393 416.54 210.886 375.609C195.623 352.897 204.24 330.838 179.837 312.766C157.012 295.863 135.566 304.862 115.559 289.562C102.464 279.549 83.9644 260.557 80.1513 215.117Z" fill="#F5F8FC"/>
</g>
<g clip-path="url(#clip2_1_819)">
<path d="M422.584 118.828H156.75V231.585H422.584V118.828Z" fill="#B8C2D8"/>
<path d="M210.315 124.219H160.852V173.682H210.315V124.219Z" fill="#F9F9FF"/>
<path d="M262.357 124.219H212.894V173.682H262.357V124.219Z" fill="#F9F9FF"/>
<path d="M314.398 124.219H264.936V173.682H314.398V124.219Z" fill="#F9F9FF"/>
<path d="M366.44 124.219H316.977V173.682H366.44V124.219Z" fill="#F9F9FF"/>
<path d="M418.482 124.219H369.019V173.682H418.482V124.219Z" fill="#F9F9FF"/>
<path d="M210.315 176.73H160.852V226.193H210.315V176.73Z" fill="#F9F9FF"/>
<path d="M262.357 176.73H212.894V226.193H262.357V176.73Z" fill="#F9F9FF"/>
<path d="M314.398 176.73H264.936V226.193H314.398V176.73Z" fill="#F9F9FF"/>
<path d="M366.44 176.73H316.977V226.193H366.44V176.73Z" fill="#F9F9FF"/>
<path d="M418.482 176.73H369.019V226.193H418.482V176.73Z" fill="#F9F9FF"/>
<path d="M192.787 226.193H190.258L160.852 201.143V198.989L192.787 226.193Z" fill="white"/>
<path d="M210.315 151.778V153.956L176.223 124.219H178.722L210.315 151.778Z" fill="white"/>
<path d="M316.977 128.095L366.44 171.238V173.418L316.977 130.272V128.095Z" fill="white"/>
<path d="M369.241 173.682H369.019V173.488L369.241 173.682Z" fill="#E8E8E8"/>
<path d="M343.239 176.73L366.44 196.968V199.145L340.743 176.73H343.239Z" fill="white"/>
<path d="M399.946 226.193H397.447L369.019 201.396V199.216L399.946 226.193Z" fill="white"/>
<path d="M314.398 221.734V223.912L264.936 180.767V178.589L314.398 221.734Z" fill="white"/>
<path d="M314.398 209.27V211.448L274.596 176.73H277.095L314.398 209.27Z" fill="white"/>
<path d="M369.019 161.012L383.544 173.682H381.047L369.019 163.192V161.012Z" fill="white"/>
<path d="M418.482 204.158V206.335L384.54 176.73H387.039L418.482 204.158Z" fill="white"/>
<path d="M330.086 124.219L366.44 155.93V160.288L325.09 124.219H330.086Z" fill="white"/>
<path d="M354.375 124.219L366.44 134.745V139.101L349.379 124.219H354.375Z" fill="white"/>
<path d="M411.081 173.682H406.086L369.019 141.351V136.993L411.081 173.682Z" fill="white"/>
<path d="M415.877 226.193H410.882L369.019 189.677V185.322L415.877 226.193Z" fill="white"/>
<path d="M210.315 216.962V226.193H206.682L160.852 187.014V176.73H163.253L210.315 216.962Z" fill="white"/>
<path d="M244.721 124.219L262.357 139.295V151.633L230.291 124.219H244.721Z" fill="white"/>
<path d="M302.581 173.682H288.151L264.936 153.836V141.499L302.581 173.682Z" fill="white"/>
<path d="M259.743 124.219H262.357V126.456L259.743 124.219Z" fill="#E8E8E8"/>
<path d="M314.398 152.444V170.944L264.936 128.659V124.219H281.385L314.398 152.444Z" fill="white"/>
<path d="M361.388 124.219H366.44V128.538L361.388 124.219Z" fill="white"/>
<path d="M418.482 154.526V173.026L369.019 130.741V124.219H383.03L418.482 154.526Z" fill="white"/>
<path d="M210.315 162.742V173.682H201.445L160.852 137.324V124.219H167.308L210.315 162.742Z" fill="white"/>
<path d="M262.357 209.357V226.193H260.069L212.894 183.939V176.73H225.933L262.357 209.357Z" fill="white"/>
</g>
<g clip-path="url(#clip3_1_819)">
<path d="M49.2142 185.245C48.8818 184.913 48.4219 184.708 47.9156 184.708C46.9011 184.708 46.0798 185.528 46.0798 186.541V190.303H49.7514V186.541C49.7514 186.036 49.5466 185.576 49.2142 185.245ZM49.0751 189.273H46.7562V186.896C46.7562 186.257 47.276 185.738 47.9156 185.738C48.2364 185.738 48.5262 185.868 48.735 186.078C48.9456 186.286 49.0751 186.576 49.0751 186.896L49.0751 189.273ZM123.032 185.245C122.699 184.913 122.24 184.708 121.733 184.708C120.719 184.708 119.897 185.528 119.897 186.541V190.303H123.569V186.541C123.569 186.036 123.364 185.576 123.032 185.245ZM122.893 189.273H120.574V186.896C120.574 186.257 121.094 185.738 121.733 185.738C122.054 185.738 122.344 185.868 122.553 186.078C122.763 186.286 122.893 186.576 122.893 186.896V189.273Z" fill="#F2F2F2"/>
<path d="M137.676 187.506H31.9734V241.521H137.676V187.506Z" fill="#7C4B33"/>
<path d="M134.777 190.978H34.8721V238.048H134.777V190.978Z" fill="#FFBC97"/>
<path d="M134.777 238.193H34.872C34.792 238.193 34.7271 238.128 34.7271 238.048V190.978C34.7271 190.898 34.792 190.833 34.872 190.833H134.777C134.857 190.833 134.922 190.898 134.922 190.978V238.048C134.922 238.128 134.857 238.193 134.777 238.193ZM35.0169 237.904H134.632V191.123H35.0169V237.904Z" fill="black"/>
<path d="M34.9687 191.123C34.9266 191.123 34.8849 191.104 34.8562 191.069L32.3441 187.983C32.2935 187.921 32.3031 187.829 32.3652 187.779C32.4269 187.729 32.5183 187.738 32.569 187.8L35.0812 190.887C35.1317 190.949 35.1221 191.04 35.06 191.09C35.0332 191.112 35.001 191.123 34.9687 191.123ZM134.874 191.123C134.841 191.123 134.809 191.112 134.782 191.09C134.72 191.04 134.711 190.949 134.761 190.887L137.273 187.8C137.324 187.738 137.415 187.729 137.477 187.779C137.539 187.829 137.549 187.921 137.498 187.983L134.986 191.069C134.958 191.104 134.916 191.123 134.874 191.123ZM137.386 241.473C137.342 241.473 137.299 241.453 137.271 241.416L134.759 238.136C134.71 238.073 134.722 237.982 134.786 237.933C134.85 237.885 134.94 237.897 134.989 237.96L137.501 241.24C137.55 241.303 137.537 241.394 137.474 241.443C137.448 241.463 137.417 241.473 137.386 241.473ZM32.2633 241.28C32.2294 241.28 32.1954 241.268 32.1678 241.244C32.1076 241.191 32.1016 241.1 32.1543 241.04L34.8596 237.953C34.9125 237.893 35.0042 237.887 35.0642 237.94C35.1244 237.992 35.1304 238.084 35.0778 238.144L32.3724 241.23C32.3437 241.263 32.3035 241.28 32.2633 241.28Z" fill="black"/>
<path d="M54.2075 208.147L50.5088 209.475L53.5101 206.942L54.2075 208.147Z" fill="#F2F2F2"/>
<path d="M54.5989 210.043C55.2646 209.731 55.3189 208.442 54.7203 207.164C54.1216 205.885 53.0967 205.102 52.4311 205.413C51.7654 205.725 51.7111 207.014 52.3098 208.292C52.9084 209.571 53.9333 210.355 54.5989 210.043Z" fill="#F90065"/>
<path d="M56.8417 207.179L56.3484 207.445L55.0422 208.146C54.5347 208.418 53.902 208.21 53.6545 207.691C53.4462 207.251 53.5824 206.724 53.9803 206.441L55.3178 205.489L55.7109 205.209C56.1088 204.931 56.6601 205.056 56.8919 205.48L57.2114 206.06C57.4338 206.468 57.2646 206.979 56.8417 207.179Z" fill="#F90065"/>
<path d="M56.8418 207.179L56.8403 207.18C56.5695 207.326 56.2315 207.223 56.0882 206.951L55.5426 205.916C55.4139 205.671 55.4858 205.369 55.711 205.209C56.1088 204.931 56.6601 205.056 56.8919 205.48L57.2114 206.06C57.4338 206.468 57.2647 206.979 56.8418 207.179Z" fill="#BA0055"/>
<path d="M49.3767 216.635L45.678 217.963L48.6793 215.43L49.3767 216.635Z" fill="#F2F2F2"/>
<path d="M49.7681 218.531C50.4338 218.219 50.4881 216.93 49.8895 215.652C49.2908 214.373 48.2659 213.59 47.6003 213.901C46.9346 214.213 46.8803 215.502 47.479 216.781C48.0776 218.059 49.1025 218.843 49.7681 218.531Z" fill="#32CE95"/>
<path d="M52.0107 215.667L51.5173 215.933L50.2111 216.634C49.7037 216.906 49.0709 216.698 48.8234 216.179C48.6151 215.739 48.7514 215.212 49.1492 214.929L50.4868 213.977L50.8799 213.697C51.2777 213.419 51.829 213.544 52.0608 213.968L52.3803 214.548C52.6027 214.956 52.4336 215.467 52.0107 215.667Z" fill="#32CE95"/>
<path d="M52.0107 215.667L52.0093 215.668C51.7385 215.814 51.4004 215.711 51.2572 215.439L50.7116 214.404C50.5828 214.159 50.6547 213.858 50.8799 213.697C51.2777 213.419 51.8291 213.544 52.0608 213.968L52.3804 214.548C52.6028 214.956 52.4336 215.467 52.0107 215.667Z" fill="#1AA069"/>
<path d="M60.198 221.265L56.4993 222.593L59.5008 220.06L60.198 221.265Z" fill="#F2F2F2"/>
<path d="M60.5894 223.161C61.2551 222.849 61.3094 221.56 60.7107 220.282C60.1121 219.003 59.0872 218.22 58.4216 218.531C57.7559 218.843 57.7016 220.132 58.3002 221.411C58.8989 222.689 59.9238 223.473 60.5894 223.161Z" fill="#112E5B"/>
<path d="M62.8322 220.297L62.3389 220.563L61.0326 221.264C60.5252 221.536 59.8924 221.328 59.645 220.809C59.4367 220.369 59.5729 219.842 59.9707 219.559L61.3083 218.607L61.7014 218.327C62.0992 218.049 62.6505 218.174 62.8823 218.598L63.2018 219.178C63.4243 219.586 63.2551 220.097 62.8322 220.297Z" fill="#112E5B"/>
<path d="M62.8323 220.297L62.8308 220.298C62.56 220.444 62.222 220.341 62.0787 220.069L61.5331 219.034C61.4043 218.789 61.4763 218.487 61.7015 218.327C62.0993 218.049 62.6506 218.174 62.8824 218.598L63.2019 219.178C63.4243 219.586 63.2551 220.097 62.8323 220.297Z" fill="#0A1E3A"/>
</g>
<g clip-path="url(#clip4_1_819)">
<path d="M47.6401 436.567L46.6104 436.366L55.2139 392.323L56.2436 392.524L47.6401 436.567Z" fill="black"/>
<path d="M103.477 436.567L94.8738 392.524L95.9035 392.323L104.507 436.366L103.477 436.567Z" fill="black"/>
<path d="M138.319 436.602L126.568 392.559L127.582 392.289L139.333 436.331L138.319 436.602Z" fill="black"/>
<path d="M48.4079 352.471H99.6905V391.27H45.1316V355.747C45.1316 353.939 46.5997 352.471 48.4079 352.471Z" fill="#7C4B33"/>
<path d="M99.6904 352.471H134.605C136.414 352.471 137.882 353.939 137.882 355.747V391.27H99.6904V352.471Z" fill="#562F20"/>
<path d="M80.5949 357.085H59.8206V360.86H80.5949V357.085Z" fill="#562F20"/>
<path d="M99.6905 391.27H45.1316V393.577H99.6905V391.27Z" fill="#FFBC97"/>
<path d="M137.882 391.27H99.6904V393.577H137.882V391.27Z" fill="#422117"/>
<path d="M130.432 405.112H53.2104V406.161H130.432V405.112Z" fill="black"/>
</g>
<g clip-path="url(#clip5_1_819)">
<path d="M157.252 435.432H145.734C144.426 435.432 143.422 434.375 143.613 433.197L146.368 416.153C146.523 415.195 147.426 414.486 148.489 414.486H156.334C157.477 414.486 158.419 415.302 158.475 416.341L159.394 433.385C159.454 434.499 158.478 435.432 157.252 435.432ZM420.219 435.432H431.737C433.046 435.432 434.049 434.375 433.859 433.197L431.103 416.153C430.949 415.195 430.046 414.486 428.982 414.486H421.138C419.994 414.486 419.052 415.302 418.996 416.341L418.078 433.385C418.018 434.499 418.994 435.432 420.219 435.432Z" fill="#7C4B33"/>
<path d="M181.854 318.588H144.834V369.309H181.854V318.588Z" fill="#D8BAA4"/>
<path d="M136.855 318.588H146.238C151.941 318.588 156.572 323.219 156.572 328.922V420.03H136.855C130.296 420.03 124.97 414.705 124.97 408.145V330.474C124.97 323.914 130.296 318.588 136.855 318.588Z" fill="#FFEDE1"/>
<path d="M432.186 318.588H395.618V369.309H432.186V318.588Z" fill="#D8BAA4"/>
<path d="M431.234 318.588H440.616C447.176 318.588 452.501 323.914 452.501 330.474V408.145C452.501 414.705 447.176 420.03 440.616 420.03H420.899V328.922C420.899 323.219 425.53 318.588 431.234 318.588Z" fill="#FFEDE1"/>
<path d="M182.684 287.375H282.262C285.835 287.375 288.736 290.276 288.736 293.849V353.292H176.21V293.849C176.21 290.276 179.111 287.375 182.684 287.375ZM295.21 287.375H394.787C398.36 287.375 401.261 290.276 401.261 293.849V353.292H288.736V293.849C288.736 290.276 291.637 287.375 295.21 287.375Z" fill="#F7E3D5"/>
<path d="M420.899 379.987H156.572V420.031H420.899V379.987Z" fill="#F7E3D5"/>
<path d="M412.265 353.292H165.207C160.438 353.292 156.572 357.158 156.572 361.927V384.7C156.572 389.469 160.438 393.335 165.207 393.335H412.265C417.033 393.335 420.899 389.469 420.899 384.7V361.927C420.899 357.158 417.033 353.292 412.265 353.292Z" fill="#FFEDE1"/>
<path d="M289.005 293.638H288.467V343.949H289.005V293.638Z" fill="black"/>
<path d="M289.005 361.814H288.467V392.206H289.005V361.814Z" fill="black"/>
</g>
<g clip-path="url(#clip6_1_819)">
<path d="M115.002 351.622C115.112 351.622 115.168 351.754 115.091 351.834C114.573 352.377 113.841 352.715 113.031 352.715H59.5689C57.9951 352.715 56.7192 351.44 56.7192 349.867V344.931C56.7192 343.359 57.9951 342.084 59.5689 342.084H113.031C113.884 342.084 114.65 342.458 115.171 343.052C115.214 343.1 115.18 343.177 115.115 343.177H101.364C100.54 343.177 99.8722 343.844 99.8722 344.667V350.132C99.8722 350.955 100.54 351.622 101.364 351.622H115.002Z" fill="#FFBC97"/>
<path d="M118.705 333.241H108.821V340.792H118.599C118.091 341.57 117.212 342.084 116.213 342.084H62.7508C61.177 342.084 59.9011 340.809 59.9011 339.236V334.3C59.9011 332.728 61.177 331.453 62.7508 331.453H116.213C117.356 331.453 118.342 332.125 118.796 333.096C118.827 333.164 118.779 333.241 118.705 333.241Z" fill="#B8C2D8"/>
<path d="M75.2135 331.552H72.7278V341.984H75.2135V331.552Z" fill="#FFCC83"/>
<path d="M108.821 334.732V339.302C108.821 340.125 109.489 340.792 110.312 340.792H118.547C118.032 341.513 117.179 341.984 116.213 341.984H109.053C107.991 341.984 107.131 341.124 107.131 340.063V333.473C107.131 332.412 107.991 331.552 109.053 331.552H116.213C117.344 331.552 118.322 332.199 118.782 333.137C118.806 333.185 118.769 333.241 118.715 333.241H110.312C109.489 333.241 108.821 333.908 108.821 334.732Z" fill="#FFCC83"/>
<path d="M116.213 331.329H62.7508C61.1083 331.329 59.7769 332.659 59.7769 334.3V339.236C59.7769 340.877 61.1084 342.208 62.7508 342.208H116.213C117.282 342.208 118.221 341.641 118.745 340.792H118.447C117.955 341.498 117.136 341.96 116.213 341.96H62.7508C61.2456 341.96 60.0254 340.74 60.0254 339.236V334.3C60.0254 332.796 61.2456 331.577 62.7508 331.577H116.213C117.339 331.577 118.309 332.265 118.723 333.241C118.854 333.241 118.937 333.104 118.879 332.987C118.394 332.005 117.381 331.329 116.213 331.329Z" fill="black"/>
<path d="M66.6621 342.183H63.8782V352.615H66.6621V342.183Z" fill="#FFCC83"/>
<path d="M84.7587 342.183H71.2361V352.615H84.7587V342.183Z" fill="#FFCC83"/>
<path d="M115.168 351.622C115.132 351.622 115.099 351.638 115.075 351.665C114.577 352.232 113.845 352.591 113.031 352.591H59.5689C58.0637 352.591 56.8435 351.371 56.8435 349.867V344.931C56.8435 343.427 58.0637 342.208 59.5689 342.208H113.031C113.865 342.208 114.613 342.585 115.112 343.177C115.243 343.177 115.311 343.021 115.222 342.925C114.679 342.332 113.897 341.96 113.031 341.96H59.5689C57.9265 341.96 56.595 343.29 56.595 344.931V349.867C56.595 351.508 57.9265 352.839 59.5689 352.839H113.031C113.92 352.839 114.719 352.447 115.264 351.827C115.334 351.748 115.275 351.622 115.168 351.622Z" fill="black"/>
<path d="M118.267 333.241V340.792H110.313C109.489 340.792 108.821 340.124 108.821 339.302V334.732C108.821 333.909 109.489 333.241 110.313 333.241H118.267Z" fill="#EFEFEF"/>
<path d="M118.267 334.413V334.653H110.312C110.246 334.653 110.192 334.599 110.192 334.533C110.192 334.466 110.246 334.413 110.312 334.413H118.267ZM118.267 336.002V336.243H110.312C110.246 336.243 110.192 336.189 110.192 336.122C110.192 336.056 110.246 336.002 110.312 336.002H118.267ZM118.267 337.592V337.832H110.312C110.246 337.832 110.192 337.779 110.192 337.712C110.192 337.646 110.246 337.592 110.312 337.592H118.267ZM118.267 339.182V339.422H110.312C110.246 339.422 110.192 339.368 110.192 339.302C110.192 339.235 110.246 339.182 110.312 339.182H118.267Z" fill="black"/>
<path d="M114.489 343.177V351.622H101.364C100.54 351.622 99.8723 350.954 99.8723 350.132V344.667C99.8723 343.844 100.54 343.177 101.364 343.177H114.489Z" fill="#EFEFEF"/>
<path d="M114.489 344.447V344.688H102.159C102.093 344.688 102.039 344.634 102.039 344.568C102.039 344.501 102.093 344.447 102.159 344.447H114.489ZM114.489 346.236V346.476H102.159C102.093 346.476 102.039 346.423 102.039 346.356C102.039 346.289 102.093 346.236 102.159 346.236H114.489ZM114.489 348.024V348.265H102.159C102.093 348.265 102.039 348.211 102.039 348.144C102.039 348.078 102.093 348.024 102.159 348.024H114.489ZM114.489 349.813V350.053H102.159C102.093 350.053 102.039 349.999 102.039 349.933C102.039 349.866 102.093 349.813 102.159 349.813H114.489Z" fill="black"/>
<path d="M99.2653 282.452C99.2653 282.452 99.037 278.345 96.2976 279.257C93.5581 280.17 95.841 282.68 97.8956 283.136C99.9502 283.592 99.2653 282.452 99.2653 282.452Z" fill="#F90065"/>
<path d="M98.1238 282.452C98.1238 282.452 98.8086 278.573 101.32 279.257C103.831 279.942 101.32 282.68 99.4935 282.68C97.6672 282.68 98.1238 282.452 98.1238 282.452ZM97.4389 282.452C97.4389 282.452 94.0146 280.17 92.8731 282.223C91.7317 284.277 94.9277 284.733 96.0692 284.049C97.2106 283.364 97.4389 282.452 97.4389 282.452Z" fill="#F90065"/>
<path d="M93.3298 317.132C93.3298 317.132 97.8955 309.831 96.5258 303.899C95.1561 297.967 92.8732 293.86 87.3943 293.86C81.9153 293.86 78.2627 300.02 79.8607 306.409C81.4588 312.797 86.9377 317.817 86.9377 317.817L93.3298 317.132Z" fill="#32CE95"/>
<path d="M95.156 302.073C95.156 302.073 94.9874 295.278 97.4389 292.263C100.407 288.612 104.516 287.927 107.255 290.894C109.995 293.86 107.712 300.476 105.657 302.986C103.603 305.496 98.8086 308.462 94.2429 307.549C89.6771 306.637 95.156 302.073 95.156 302.073Z" fill="#32CE95"/>
<path d="M102.69 289.981C102.69 289.981 103.603 283.592 99.9502 282.223C96.2975 280.854 93.7864 284.505 95.1561 287.471C96.5258 290.437 100.178 291.35 100.178 291.35L102.69 289.981Z" fill="#32CE95"/>
<path d="M82.4674 315.307H97.1152C98.0499 315.307 98.8087 316.066 98.8087 317V326.435C98.8087 329.108 96.6384 331.278 93.9653 331.278H85.6174C82.9442 331.278 80.7739 329.108 80.7739 326.435V317C80.7739 316.066 81.5328 315.307 82.4674 315.307Z" fill="#7C4B33"/>
<path d="M90.5445 302.091C90.4669 302.091 90.3967 302.038 90.3782 301.959C90.2281 301.326 90.1996 300.651 90.2955 300.007C90.3093 299.914 90.3976 299.851 90.4901 299.863C90.5837 299.877 90.6482 299.964 90.6343 300.058C90.5447 300.659 90.5712 301.289 90.7112 301.88C90.7331 301.972 90.6762 302.065 90.5842 302.086C90.5708 302.089 90.5576 302.091 90.5445 302.091ZM87.1734 302.419C87.1525 302.419 87.1313 302.415 87.1108 302.407L85.3627 301.72C85.2747 301.686 85.2314 301.587 85.266 301.499C85.3008 301.41 85.4011 301.368 85.488 301.402L87.2361 302.089C87.3241 302.124 87.3674 302.223 87.3328 302.311C87.3063 302.378 87.2417 302.419 87.1734 302.419ZM84.5399 308.629C84.5225 308.629 84.5049 308.626 84.4875 308.62C83.6686 308.358 82.7838 308.266 81.9284 308.358C81.8363 308.37 81.75 308.3 81.74 308.206C81.73 308.112 81.7982 308.028 81.8923 308.018C82.7943 307.922 83.7282 308.017 84.5923 308.295C84.6823 308.323 84.7318 308.42 84.7028 308.51C84.6797 308.582 84.6123 308.629 84.5399 308.629ZM89.3263 309.709C89.3025 309.709 89.2784 309.704 89.2555 309.693C88.5458 309.371 87.9395 308.86 87.5018 308.215C87.4485 308.137 87.4691 308.031 87.5473 307.978C87.6253 307.924 87.7319 307.945 87.785 308.023C88.1874 308.616 88.7449 309.086 89.3972 309.382C89.4833 309.421 89.5214 309.522 89.4822 309.609C89.4536 309.672 89.3912 309.709 89.3263 309.709ZM100.855 301.49C100.829 301.49 100.802 301.484 100.777 301.471C100.141 301.145 99.6107 300.616 99.2845 299.979C99.2415 299.895 99.2747 299.792 99.359 299.749C99.4437 299.706 99.5467 299.739 99.5895 299.823C99.8829 300.396 100.36 300.873 100.933 301.166C101.017 301.209 101.051 301.312 101.008 301.396C100.977 301.456 100.917 301.49 100.855 301.49ZM103.029 298.381C102.956 298.381 102.889 298.334 102.866 298.261L102.4 296.776C102.372 296.686 102.422 296.59 102.512 296.562C102.603 296.533 102.699 296.584 102.727 296.674L103.193 298.159C103.221 298.249 103.171 298.345 103.081 298.373C103.063 298.378 103.046 298.381 103.029 298.381ZM105.237 294.477C105.233 294.477 105.228 294.476 105.223 294.476C105.129 294.468 105.059 294.385 105.067 294.291C105.109 293.791 105 293.273 104.761 292.833C104.716 292.75 104.746 292.646 104.829 292.601C104.913 292.556 105.016 292.587 105.062 292.67C105.333 293.168 105.456 293.754 105.408 294.32C105.4 294.409 105.325 294.477 105.237 294.477ZM99.5764 293.129C99.5371 293.129 99.4977 293.116 99.4656 293.088C99.3933 293.027 99.3846 292.919 99.4459 292.847L100.592 291.499C100.654 291.427 100.762 291.419 100.833 291.48C100.906 291.541 100.914 291.649 100.853 291.721L99.7068 293.069C99.6729 293.108 99.6247 293.129 99.5764 293.129ZM99.9801 286.39C99.8898 286.39 99.8145 286.319 99.8093 286.228L99.6874 284.004C99.6823 283.909 99.7547 283.829 99.849 283.823C99.9406 283.816 100.024 283.891 100.029 283.985L100.151 286.21C100.156 286.304 100.084 286.385 99.9897 286.39C99.9866 286.39 99.9835 286.39 99.9801 286.39ZM96.6768 286.66C96.6329 286.66 96.5892 286.643 96.5558 286.609L95.8141 285.868C95.7472 285.801 95.7472 285.693 95.8141 285.626C95.881 285.559 95.9893 285.559 96.0562 285.626L96.7979 286.367C96.8648 286.434 96.8648 286.543 96.7979 286.609C96.7645 286.643 96.7208 286.66 96.6768 286.66ZM99.7108 288.883C99.6751 288.883 99.639 288.872 99.6082 288.849C99.5327 288.793 99.5173 288.685 99.5741 288.61L99.9788 288.07C100.035 287.995 100.143 287.979 100.218 288.036C100.294 288.093 100.309 288.2 100.253 288.276L99.8479 288.815C99.8145 288.86 99.763 288.883 99.7108 288.883ZM83.0228 297.88C83.0061 297.88 82.9891 297.878 82.9724 297.872C82.8821 297.845 82.8313 297.749 82.8591 297.659L83.2638 296.344C83.2916 296.254 83.3877 296.204 83.4778 296.231C83.5681 296.259 83.6189 296.355 83.591 296.445L83.1864 297.759C83.1637 297.833 83.0961 297.88 83.0228 297.88ZM93.7691 309.205C93.7613 309.205 93.7535 309.205 93.7454 309.203C93.6518 309.191 93.5862 309.104 93.5992 309.01L93.8083 307.495C93.8212 307.401 93.9073 307.335 94.0014 307.349C94.095 307.362 94.1605 307.448 94.1476 307.542L93.9385 309.057C93.9267 309.143 93.8531 309.205 93.7691 309.205ZM89.2936 313.548C89.2708 313.548 89.2481 313.544 89.226 313.534C88.7418 313.326 88.209 313.225 87.6813 313.245C87.585 313.243 87.5076 313.174 87.5041 313.08C87.5007 312.985 87.5747 312.906 87.6693 312.903C88.2484 312.883 88.831 312.992 89.3611 313.22C89.4481 313.257 89.4882 313.358 89.451 313.444C89.4231 313.509 89.3598 313.548 89.2936 313.548Z" fill="black"/>
<path d="M95.3784 298.47C95.3712 298.47 95.3639 298.47 95.3565 298.469C95.2627 298.457 95.1965 298.371 95.2083 298.277C95.5632 295.49 96.269 293.43 97.3061 292.155C98.6023 290.56 100.132 289.493 101.73 289.068C101.824 289.043 101.916 289.098 101.94 289.189C101.964 289.28 101.91 289.374 101.819 289.398C100.291 289.805 98.8223 290.832 97.5719 292.37C96.5898 293.578 95.89 295.636 95.548 298.321C95.5369 298.407 95.4633 298.47 95.3784 298.47ZM96.7822 306.422C96.6877 306.422 96.6112 306.345 96.611 306.251C96.6097 305.434 96.525 304.655 96.3591 303.937C95.6631 300.923 94.8255 298.792 93.7226 297.232C93.668 297.155 93.6863 297.048 93.7636 296.994C93.8412 296.939 93.9478 296.957 94.0022 297.035C95.1316 298.632 95.9866 300.801 96.6926 303.86C96.8643 304.603 96.9521 305.407 96.9534 306.25C96.9537 306.345 96.877 306.421 96.7824 306.422H96.7822Z" fill="black"/>
</g>
<g clip-path="url(#clip7_1_819)">
<path d="M488.139 237.474H483.986V434.078H488.139V237.474Z" fill="#FFBC97"/>
<path d="M469.884 431.894H502.242C505.015 431.894 507.266 434.145 507.266 436.918H464.859C464.859 434.145 467.111 431.894 469.884 431.894Z" fill="#B8C2D8"/>
<path d="M464.204 246.213C464.687 246.213 465.078 245.822 465.078 245.339C465.078 244.856 464.687 244.464 464.204 244.464C463.721 244.464 463.329 244.856 463.329 245.339C463.329 245.822 463.721 246.213 464.204 246.213Z" fill="#FFBC97"/>
<path d="M464.204 248.397C464.687 248.397 465.078 248.006 465.078 247.523C465.078 247.04 464.687 246.649 464.204 246.649C463.721 246.649 463.329 247.04 463.329 247.523C463.329 248.006 463.721 248.397 464.204 248.397Z" fill="#FFBC97"/>
<path d="M464.204 250.582C464.687 250.582 465.078 250.19 465.078 249.707C465.078 249.225 464.687 248.833 464.204 248.833C463.721 248.833 463.329 249.225 463.329 249.707C463.329 250.19 463.721 250.582 464.204 250.582Z" fill="#FFBC97"/>
<path d="M464.204 252.766C464.687 252.766 465.078 252.375 465.078 251.892C465.078 251.409 464.687 251.018 464.204 251.018C463.721 251.018 463.329 251.409 463.329 251.892C463.329 252.375 463.721 252.766 464.204 252.766Z" fill="#FFBC97"/>
<path d="M464.204 254.951C464.687 254.951 465.078 254.559 465.078 254.077C465.078 253.594 464.687 253.202 464.204 253.202C463.721 253.202 463.329 253.594 463.329 254.077C463.329 254.559 463.721 254.951 464.204 254.951Z" fill="#FFBC97"/>
<path d="M464.204 257.135C464.687 257.135 465.078 256.744 465.078 256.261C465.078 255.778 464.687 255.387 464.204 255.387C463.721 255.387 463.329 255.778 463.329 256.261C463.329 256.744 463.721 257.135 464.204 257.135Z" fill="#FFBC97"/>
<path d="M464.204 259.32C464.687 259.32 465.078 258.928 465.078 258.446C465.078 257.963 464.687 257.571 464.204 257.571C463.721 257.571 463.329 257.963 463.329 258.446C463.329 258.928 463.721 259.32 464.204 259.32Z" fill="#FFBC97"/>
<path d="M464.204 261.504C464.687 261.504 465.078 261.113 465.078 260.63C465.078 260.147 464.687 259.756 464.204 259.756C463.721 259.756 463.329 260.147 463.329 260.63C463.329 261.113 463.721 261.504 464.204 261.504Z" fill="#FFBC97"/>
<path d="M464.204 263.689C464.687 263.689 465.078 263.297 465.078 262.815C465.078 262.332 464.687 261.94 464.204 261.94C463.721 261.94 463.329 262.332 463.329 262.815C463.329 263.297 463.721 263.689 464.204 263.689Z" fill="#FFBC97"/>
<path d="M464.204 265.873C464.687 265.873 465.078 265.482 465.078 264.999C465.078 264.516 464.687 264.125 464.204 264.125C463.721 264.125 463.329 264.516 463.329 264.999C463.329 265.482 463.721 265.873 464.204 265.873Z" fill="#FFBC97"/>
<path d="M464.204 268.058C464.687 268.058 465.078 267.666 465.078 267.183C465.078 266.701 464.687 266.309 464.204 266.309C463.721 266.309 463.329 266.701 463.329 267.183C463.329 267.666 463.721 268.058 464.204 268.058Z" fill="#FFBC97"/>
<path d="M464.204 270.242C464.687 270.242 465.078 269.851 465.078 269.368C465.078 268.885 464.687 268.494 464.204 268.494C463.721 268.494 463.329 268.885 463.329 269.368C463.329 269.851 463.721 270.242 464.204 270.242Z" fill="#FFBC97"/>
<path d="M465.734 275.048H462.892L463.548 270.897H464.86L465.734 275.048Z" fill="#FFBC97"/>
<path d="M521.584 245.994H450.542L463.061 180.022H509.064L521.584 245.994Z" fill="#FFCC83"/>
<path d="M466.827 245.068C466.821 245.068 466.815 245.068 466.808 245.067C466.717 245.057 466.651 244.975 466.661 244.883L473.875 180.441C473.885 180.349 473.965 180.282 474.059 180.294C474.151 180.304 474.216 180.386 474.206 180.478L466.993 244.92C466.983 245.005 466.911 245.068 466.827 245.068ZM508.578 245.942C508.494 245.942 508.422 245.879 508.412 245.794L500.98 180.478C500.97 180.387 501.035 180.304 501.127 180.294C501.215 180.282 501.301 180.349 501.311 180.441L508.743 245.757C508.754 245.848 508.688 245.931 508.597 245.941C508.59 245.942 508.584 245.942 508.578 245.942ZM484.97 245.068C484.967 245.068 484.964 245.068 484.961 245.068C484.869 245.063 484.799 244.985 484.803 244.893L488.301 180.45C488.306 180.358 488.389 180.289 488.476 180.293C488.568 180.298 488.639 180.377 488.634 180.468L485.136 244.911C485.132 245 485.058 245.068 484.97 245.068ZM507.266 437.085H464.86C464.768 437.085 464.693 437.01 464.693 436.918C464.693 436.827 464.768 436.752 464.86 436.752H507.266C507.358 436.752 507.433 436.827 507.433 436.918C507.433 437.01 507.358 437.085 507.266 437.085Z" fill="black"/>
</g>
<g clip-path="url(#clip8_1_819)">
<path d="M271.547 282.409L236.407 290.954C230.018 292.508 223.579 288.589 222.024 282.201C220.468 275.81 224.389 269.369 230.779 267.815L265.92 259.269C272.309 257.716 278.748 261.634 280.303 268.023C281.858 274.413 277.938 280.855 271.547 282.409Z" fill="#32CE95"/>
<path d="M204.782 264.238C204.782 264.238 190.82 266.393 182.092 267.735C173.365 269.077 157.476 320.523 159.714 336.18L232.445 329.917L245.425 275.34L232.857 268.419L204.782 264.238Z" fill="#32CE95"/>
<path d="M283.021 410.663C278.166 414.202 271.527 410.996 266.376 409.002C263.848 407.885 261.395 406.636 258.964 405.295C258.563 405.058 252.293 395.444 251.915 395.23C250.478 394.42 249.697 398.388 248.558 397.914C245.178 396.558 241.122 394.25 239.606 392.769C240.544 388.14 242.485 378.558 243.411 373.981L267.804 366.376C267.804 366.376 264.447 379.796 268.923 385.388C272.991 390.703 292.018 402.407 283.021 410.663ZM251.474 252.96C251.545 251.223 250.431 249.662 248.765 249.167C246.669 248.545 243.706 247.828 241.173 247.828C236.697 247.828 232.445 248.276 232.445 248.276C232.445 248.276 229.088 264.157 229.536 265.051C229.983 265.946 235.578 266.617 237.592 264.38C239.606 262.144 242.068 261.025 242.292 261.249C242.515 261.473 250.348 260.354 251.019 256.999C251.299 255.6 251.424 254.161 251.474 252.96Z" fill="#7C4B33"/>
<path d="M206.165 256.748C205.238 257.288 203.944 257.083 203.229 256.285C202.514 255.486 202.455 254.178 203.094 253.317C201.921 253.269 200.694 252.54 200.454 251.392C200.214 250.244 201.43 248.949 202.515 249.396C202.137 248.85 202.288 248.011 202.833 247.632C203.377 247.252 204.217 247.4 204.598 247.942C204.278 247.42 204.594 246.63 205.186 246.471C203.528 245.224 202.867 241.548 204.247 240C205.628 238.451 207.708 238.071 209.618 238.881C208.886 237.337 206.485 233.513 210.77 230.504C212.169 229.521 214.481 229.944 215.135 231.524C215.977 228.98 217.965 226.699 220.572 226.073C223.179 225.447 226.282 226.883 227.017 229.46C227.573 227.922 229.301 226.983 230.933 227.104C232.564 227.226 234.038 228.27 234.939 229.635C235.839 231 236.22 232.653 236.309 234.285C236.583 233.633 236.872 232.96 237.39 232.477C237.908 231.995 238.724 231.757 239.339 232.108C239.81 232.378 240.053 232.913 240.236 233.424C240.781 234.948 241.058 236.568 241.05 238.187C241.309 237.189 242.696 236.805 243.578 237.339C244.461 237.874 244.817 239.025 244.678 240.047C244.539 241.069 243.995 241.988 243.415 242.841C244.904 243.14 245.648 245.243 244.678 246.411C246.001 246.685 246.285 248.654 245.43 249.699C244.574 250.745 243.124 251.055 241.782 251.219C240.441 251.383 239.01 251.496 237.932 252.309C236.902 253.085 236.39 254.356 235.562 255.343C233.945 257.27 231.309 257.944 228.84 258.43C224.083 259.367 219.266 260.01 214.43 260.347C212.894 260.453 211.141 260.693 209.619 260.484C208.667 260.353 207.816 259.901 207.18 259.181C206.985 258.96 205.735 256.999 206.165 256.748Z" fill="black"/>
<path d="M227.242 273.124C228.744 281.467 227.495 283.614 213.647 282.945C199.772 282.274 197.534 266.617 197.534 266.617C208.723 265.275 214.989 254.315 214.989 254.315C214.989 254.315 216.108 252.973 221.927 254.539C225.613 255.53 226.964 258.856 227.459 261.159C227.745 262.495 227.745 263.486 227.745 263.486C223.046 265.722 226.626 269.972 226.626 269.972C226.859 271.108 227.07 272.157 227.242 273.124Z" fill="#7C4B33"/>
<path d="M206.262 320.299C206.262 320.299 213.022 296.727 210.313 282.455L225.44 280.408C225.44 280.408 223.27 314.931 218.123 321.194L206.262 320.299Z" fill="#F2F2F2"/>
<path d="M226.626 269.972C226.859 271.108 227.069 272.157 227.242 273.124C226.727 273.164 226.15 273.157 225.507 273.104C214.989 272.209 216.556 256.999 216.556 256.999L227.459 261.159C227.745 262.495 227.745 263.486 227.745 263.486C223.046 265.722 226.626 269.972 226.626 269.972Z" fill="black"/>
<path d="M224.836 266.617C224.836 266.617 227.969 280.038 220.808 315.602H227.745C227.745 315.602 237.816 288.537 236.473 281.38L234.011 280.261C234.011 280.261 234.011 268.63 232.445 266.841C230.878 265.051 224.836 266.617 224.836 266.617Z" fill="#32CE95"/>
<path d="M227.745 315.769H220.808C220.758 315.769 220.71 315.747 220.678 315.708C220.646 315.669 220.634 315.618 220.643 315.568C224.34 297.21 225.238 284.881 225.34 277.77C225.45 270.079 224.681 266.688 224.673 266.655C224.652 266.567 224.706 266.477 224.794 266.455C225.045 266.39 230.956 264.884 232.571 266.73C233.762 268.091 234.076 274.682 234.156 278.49C234.162 278.74 234.073 278.955 233.893 279.132C233.591 279.427 233.075 279.555 232.64 279.609L236.537 281.225C236.59 281.246 236.628 281.293 236.638 281.349C237.974 288.47 228.315 314.553 227.903 315.66C227.878 315.726 227.816 315.769 227.745 315.769ZM221.013 315.434H227.628C227.962 314.53 230.293 308.167 232.453 301.124C235.488 291.228 236.825 284.448 236.324 281.499L231.821 279.633C231.746 279.602 231.704 279.522 231.722 279.442C231.739 279.363 231.81 279.305 231.892 279.311C232.25 279.323 233.263 279.279 233.658 278.892C233.771 278.781 233.824 278.652 233.821 278.497C233.685 272.095 233.137 267.886 232.319 266.951C230.973 265.415 225.978 266.516 225.033 266.742C225.348 268.378 227.638 282.429 221.013 315.434Z" fill="black"/>
<path d="M214.132 250.074C215.078 249.28 216.335 249.068 217.527 249.379C219.808 244.563 224.169 242.646 228.5 244.219C233.189 245.922 236.066 251.067 233.983 256.795C231.9 262.522 229.634 266.956 224.946 265.253C222.32 264.299 219.492 261.623 217.877 258.447C216.358 257.933 214.791 256.901 213.951 255.902C212.407 254.064 212.488 251.454 214.132 250.074Z" fill="#7C4B33"/>
<path d="M214.145 253.525L213.895 253.273C214.784 252.391 215.949 251.764 217.176 251.509L217.248 251.857C216.088 252.098 214.986 252.69 214.145 253.525Z" fill="black"/>
<path d="M215.208 252.47C215.242 253.031 215.276 253.591 215.311 254.152L215.208 252.47Z" fill="white"/>
<path d="M215.133 254.163L215.03 252.481L215.385 252.459L215.488 254.141L215.133 254.163Z" fill="black"/>
<path d="M226.356 253.529C226.505 253.121 226.388 252.704 226.095 252.597C225.802 252.49 225.444 252.735 225.296 253.143C225.147 253.552 225.264 253.969 225.557 254.076C225.85 254.182 226.208 253.938 226.356 253.529Z" fill="black"/>
<path d="M231.933 255.354C232.082 254.946 231.965 254.528 231.672 254.422C231.379 254.315 231.021 254.56 230.873 254.968C230.724 255.376 230.841 255.794 231.134 255.901C231.427 256.007 231.785 255.763 231.933 255.354Z" fill="black"/>
<path d="M229.879 258.915C229.041 258.189 228.515 257.139 228.436 256.034C228.357 254.928 228.729 253.814 229.456 252.977L229.724 253.21C229.058 253.976 228.718 254.996 228.79 256.008C228.862 257.021 229.344 257.982 230.112 258.646L229.879 258.915ZM226.769 260.635C225.284 260.036 224.231 258.559 224.148 256.96L224.503 256.942C224.577 258.383 225.564 259.766 226.902 260.307L226.769 260.635Z" fill="black"/>
<path d="M226.869 265.797C226.237 265.797 225.575 265.67 224.885 265.42C222.175 264.435 219.382 261.76 217.752 258.592C216.251 258.069 214.676 257.041 213.815 256.016C213.04 255.094 212.633 253.955 212.668 252.811C212.704 251.659 213.183 250.639 214.018 249.938C214.941 249.163 216.176 248.887 217.429 249.172C219.733 244.437 224.09 242.428 228.56 244.052L228.439 244.386C224.112 242.815 219.891 244.804 217.687 249.455L217.624 249.587L217.482 249.55C216.293 249.24 215.114 249.481 214.246 250.21C213.49 250.844 213.056 251.772 213.023 252.822C212.99 253.879 213.368 254.932 214.087 255.788C214.923 256.783 216.469 257.784 217.934 258.279L218.003 258.302L218.036 258.367C219.598 261.439 222.399 264.139 225.006 265.086C225.894 265.408 226.727 265.513 227.483 265.398C227.49 265.395 229.947 264.729 231.248 262.416L231.298 262.327C232.022 261.042 233.945 257.63 234.495 253.376L234.847 253.422C234.288 257.744 232.341 261.2 231.607 262.501L231.558 262.59C230.18 265.038 227.661 265.717 227.554 265.745C227.33 265.78 227.102 265.797 226.869 265.797Z" fill="black"/>
<path d="M275.307 281.136L265.758 283.78C261.728 284.896 257.429 283.424 254.927 280.078L241.996 262.777L240.53 260.815C237.476 254.252 238.228 249.493 247.886 248.947C249.498 249.332 251.093 249.754 252.669 250.217C262.249 253.029 271.131 257.31 278.883 263.412C285.407 268.547 283.308 278.919 275.307 281.136Z" fill="#7C4B33"/>
<path d="M204.024 262.367C204.024 262.367 217.675 282.722 206.262 320.299H199.324C199.324 320.299 202.681 293.905 197.534 281.38L201.562 278.919L197.534 279.143C197.534 279.143 199.142 269.496 196.07 266.014C195.811 265.721 195.882 265.266 196.216 265.062C197.946 264.008 202.414 261.473 204.024 262.367Z" fill="#32CE95"/>
<path d="M283.021 410.663C278.166 414.202 271.527 410.996 266.376 409.002C263.848 407.885 261.395 406.636 258.964 405.295C258.563 405.058 252.293 395.444 251.915 395.23C250.478 394.42 249.697 398.388 248.558 397.914C245.087 396.597 241.31 394.181 239.606 392.769L241.75 382.185C247.71 389.877 274.256 416.505 279.297 395.279C284.328 400.39 288.092 406.1 283.021 410.663Z" fill="#FFBC97"/>
<path d="M206.262 320.467H199.324C199.276 320.467 199.23 320.446 199.199 320.41C199.167 320.374 199.152 320.325 199.158 320.278C199.191 320.014 202.45 293.784 197.379 281.443C197.347 281.367 197.376 281.279 197.447 281.236L200.906 279.124L197.543 279.31C197.49 279.313 197.443 279.293 197.409 279.255C197.375 279.217 197.36 279.166 197.368 279.115C197.384 279.02 198.929 269.507 195.944 266.125C195.788 265.949 195.719 265.714 195.755 265.481C195.79 265.247 195.927 265.042 196.129 264.919C201.453 261.674 203.412 261.835 204.105 262.221C204.129 262.234 204.149 262.252 204.163 262.274C204.198 262.325 207.617 267.502 209.587 277.208C211.403 286.156 212.328 300.903 206.422 320.348C206.401 320.418 206.336 320.467 206.262 320.467ZM199.514 320.131H206.137C211.979 300.824 211.063 286.183 209.263 277.296C207.391 268.061 204.206 262.96 203.907 262.495C202.308 261.686 197.69 264.361 196.304 265.206C196.186 265.277 196.107 265.396 196.087 265.531C196.066 265.666 196.106 265.801 196.196 265.903C197.498 267.379 198.146 270.065 198.122 273.885C198.107 276.238 197.827 278.318 197.731 278.964L201.553 278.752C201.634 278.747 201.7 278.796 201.722 278.869C201.745 278.943 201.715 279.022 201.65 279.062L197.743 281.448C202.545 293.364 199.8 317.734 199.514 320.131Z" fill="black"/>
<path d="M177.617 296.813C177.617 296.813 184.554 279.59 191.715 279.366C198.877 279.143 210.29 320.299 210.29 320.299L184.33 328.127L177.617 296.813Z" fill="#32CE95"/>
<path d="M159.714 335.061V353.514H218.794L251.467 340.206V375.323L267.804 366.376L274.645 337.461C278.802 319.893 263.526 303.849 245.765 307.128L184.107 318.509L159.714 335.061Z" fill="#112E5B"/>
<path d="M260.501 347.267L257.986 391.273L256.614 414.018C256.634 414.079 256.655 414.139 256.677 414.197L256.672 414.255L236.249 418.492L231.277 400.012L218.794 353.626L248.488 339.255C254.24 336.473 260.866 340.89 260.501 347.267Z" fill="#112E5B"/>
<path d="M286.528 447.252C285.915 447.746 285.154 448.017 284.366 448.017H261.213C260.282 448.017 259.391 447.645 258.738 446.981C256.158 444.366 249.375 437.683 247.215 437.504C244.53 437.28 246.32 448.017 246.32 448.017H237.144C237.144 448.017 236.921 447.122 234.907 439.965C232.892 432.807 233.116 428.781 233.116 428.781L234.229 427.891C234.229 427.891 234.231 427.891 234.231 427.888C235.656 427.128 238.57 426.56 243.634 429.452C251.467 433.925 259.076 440.188 263.552 439.965C267.828 439.75 280.895 437.086 278.53 434.704C282.16 435.979 286.644 437.871 288.616 439.965C291.275 442.787 288.258 445.858 286.528 447.252Z" fill="#FFBC97"/>
<path d="M263.552 439.964C259.076 440.188 251.467 433.925 243.634 429.452C236.111 425.155 233.336 428.494 233.13 428.763C236.026 424.515 236.249 418.492 236.249 418.492L231.277 400.012C242.281 399.833 257.986 391.273 257.986 391.273L256.614 414.018C256.634 414.079 256.654 414.139 256.677 414.197C262.077 429.915 274.085 431.921 278.098 434.373C282.126 436.833 268.027 439.741 263.552 439.964Z" fill="#7C4B33"/>
<path d="M275.307 281.136L265.758 283.78C261.728 284.896 257.429 283.424 254.927 280.078L241.996 262.777C246.275 259.612 250.852 252.993 252.669 250.217C262.249 253.029 271.131 257.31 278.883 263.412C285.407 268.547 283.308 278.919 275.307 281.136Z" fill="#32CE95"/>
<path d="M235.242 280.988C235.222 280.988 235.2 280.984 235.18 280.976L227.348 277.845C227.261 277.81 227.219 277.713 227.254 277.627C227.289 277.541 227.386 277.499 227.472 277.533L235.305 280.665C235.391 280.699 235.433 280.797 235.398 280.883C235.372 280.948 235.309 280.988 235.242 280.988ZM201.451 279.199C201.391 279.199 201.333 279.167 201.303 279.111C201.259 279.029 201.289 278.928 201.37 278.884L206.741 275.976C206.823 275.931 206.925 275.962 206.969 276.043C207.013 276.125 206.983 276.227 206.901 276.271L201.53 279.178C201.505 279.192 201.477 279.199 201.451 279.199ZM181.98 319.46C181.905 319.46 181.837 319.409 181.818 319.333L175.999 295.847C175.977 295.757 176.032 295.666 176.122 295.644C176.211 295.621 176.303 295.676 176.325 295.766L182.143 319.252C182.166 319.342 182.111 319.433 182.021 319.455C182.008 319.459 181.994 319.46 181.98 319.46Z" fill="black"/>
<path d="M159.714 335.061V353.626C159.714 353.626 167.099 360.113 174.931 357.205C182.764 354.297 189.101 317.833 200.219 315.602C200.219 315.602 192.163 312.47 180.302 316.496C168.441 320.523 159.714 335.061 159.714 335.061Z" fill="#32CE95"/>
<path d="M174.541 319.513C174.486 319.513 174.432 319.486 174.4 319.436C174.35 319.358 174.372 319.255 174.45 319.204C176.387 317.95 178.338 316.986 180.248 316.338C186.402 314.249 191.515 314.116 194.722 314.372C198.203 314.65 200.197 315.413 200.28 315.445C200.367 315.479 200.409 315.576 200.376 315.662C200.342 315.749 200.244 315.791 200.159 315.758C200.078 315.727 192.015 312.697 180.356 316.655C178.472 317.295 176.546 318.247 174.632 319.486C174.604 319.504 174.573 319.513 174.541 319.513ZM250.908 274.725C250.857 274.725 250.807 274.702 250.774 274.659L241.822 262.804C241.766 262.73 241.781 262.625 241.855 262.569C241.929 262.512 242.034 262.528 242.09 262.602L251.042 274.456C251.097 274.53 251.083 274.635 251.009 274.691C250.978 274.714 250.943 274.725 250.908 274.725ZM259.188 371.352C259.185 371.352 259.182 371.352 259.179 371.352C259.086 371.347 259.015 371.268 259.02 371.176L260.278 347.558C260.436 344.61 259.065 341.868 256.612 340.224C254.158 338.579 251.1 338.352 248.431 339.616L218.754 353.666C218.67 353.705 218.57 353.67 218.53 353.586C218.49 353.502 218.526 353.403 218.61 353.363L248.287 339.313C251.064 337.998 254.246 338.234 256.798 339.945C259.351 341.656 260.777 344.509 260.614 347.576L259.355 371.194C259.351 371.283 259.276 371.352 259.188 371.352ZM208.388 314.092C208.316 314.092 208.249 314.045 208.227 313.973C205.063 303.476 198.662 288.538 195.258 281.791C195.216 281.708 195.249 281.607 195.332 281.565C195.416 281.523 195.516 281.557 195.558 281.639C198.968 288.398 205.379 303.361 208.548 313.876C208.575 313.965 208.525 314.058 208.436 314.085C208.42 314.09 208.404 314.092 208.388 314.092ZM215.252 248.445C215.252 248.445 220.42 250.8 222.351 249.192C224.592 247.325 224.032 245.458 224.032 245.458C224.032 245.458 226.647 246.205 227.954 245.084C229.262 243.964 228.515 242.284 228.515 242.284C228.515 242.284 220.109 240.044 215.252 248.445Z" fill="black"/>
<path d="M228.409 243.668C228.314 244.463 228.621 245.295 229.209 245.838C229.797 246.381 230.652 246.621 231.437 246.464C231.082 247.266 231.317 249.752 233.932 249.939C233.372 252.366 235.962 252.095 236.665 251.809C237.367 251.523 237.897 250.896 238.17 250.189C238.589 249.108 238.42 247.82 237.738 246.882C237.208 246.153 236.423 245.661 235.691 245.134C234.686 244.41 233.725 243.575 232.556 243.164C231.386 242.752 229.658 242.246 228.888 243.217L228.409 243.668Z" fill="black"/>
</g>
<g clip-path="url(#clip9_1_819)">
<path d="M344.04 312.669C339.393 310.926 337.038 305.747 338.779 301.1L352.545 264.348C354.287 259.697 359.47 257.34 364.12 259.084C368.766 260.827 371.121 266.006 369.38 270.654L355.614 307.406C353.872 312.057 348.689 314.413 344.04 312.669Z" fill="#FFCC83"/>
<path d="M390.216 250.455L402.591 251.64C417.711 253.089 428.217 267.367 425.111 282.247L416.638 322.846H341.702L354.065 264.973C354.726 261.882 356.958 259.365 359.945 258.341L379.17 251.755L390.216 250.455Z" fill="#FFCC83"/>
<path d="M370.436 254.663C370.436 254.663 374.189 266.927 376.354 269.311C376.354 269.311 383.502 256.957 389.349 253.272C389.349 253.272 375.564 256.487 370.436 254.663Z" fill="#112E5B"/>
<path d="M372.239 247.42C372.239 247.42 372.673 253.922 368.991 255.873C368.991 255.873 367.422 261.116 378.953 259.774C388.266 258.691 393.248 250.671 393.248 250.671C393.248 250.671 384.584 244.819 382.419 238.534C382.419 238.534 379.387 236.8 375.921 238.317C372.456 239.834 371.373 243.736 372.239 247.42Z" fill="#FAD0C9"/>
<path d="M376.138 269.311C376.138 269.311 389.76 250.552 386.956 245.302C386.956 245.302 389.999 244.169 393.248 250.671C393.248 250.671 394.764 255.223 394.764 256.957C394.764 258.691 386.967 258.04 384.368 260.858C381.769 263.676 377.871 268.444 376.138 269.311ZM371.837 251.642C371.837 251.642 370.29 258.907 376.138 269.094C376.138 269.094 372.239 263.459 370.507 263.242C369.436 263.108 367.537 262.974 366.243 262.891C365.526 262.846 365.032 262.156 365.217 261.461C365.926 258.807 367.657 253.027 369.641 251.538C370.94 250.563 371.799 250.402 372.023 250.671C372.023 250.888 371.837 251.642 371.837 251.642Z" fill="#F90065"/>
<path d="M384.934 232.859C383.906 231.978 382.531 231.733 381.222 232.062C378.771 226.755 374.014 224.608 369.252 226.289C364.098 228.11 360.893 233.725 363.117 240.03C365.34 246.334 367.778 251.221 372.932 249.4C375.819 248.381 378.944 245.474 380.746 242.006C382.416 241.458 384.143 240.342 385.073 239.255C386.785 237.254 386.722 234.39 384.934 232.859Z" fill="#FAD0C9"/>
<path d="M384.885 236.644C383.972 235.72 382.771 235.059 381.502 234.783L381.585 234.402C382.926 234.694 384.197 235.393 385.162 236.371L384.885 236.644Z" fill="black"/>
<path d="M383.732 235.476C383.689 236.091 383.645 236.706 383.602 237.32L383.732 235.476Z" fill="white"/>
<path d="M383.796 237.334L383.408 237.307L383.538 235.463L383.926 235.49L383.796 237.334Z" fill="black"/>
<path d="M372.376 237.133C372.698 237.02 372.831 236.563 372.673 236.113C372.514 235.664 372.125 235.391 371.802 235.505C371.48 235.618 371.347 236.075 371.505 236.524C371.664 236.974 372.053 237.247 372.376 237.133Z" fill="black"/>
<path d="M366.247 239.078C366.569 238.964 366.702 238.508 366.544 238.058C366.385 237.608 365.996 237.336 365.673 237.449C365.351 237.563 365.218 238.019 365.377 238.469C365.535 238.919 365.925 239.191 366.247 239.078Z" fill="black"/>
<path d="M367.591 242.397L367.339 242.1C368.187 241.38 368.725 240.33 368.814 239.22C368.904 238.11 368.541 236.988 367.819 236.14L368.115 235.887C368.904 236.813 369.3 238.039 369.202 239.251C369.105 240.463 368.517 241.61 367.591 242.397ZM370.981 244.317L370.839 243.954C372.311 243.375 373.406 241.867 373.502 240.288L373.89 240.311C373.783 242.064 372.614 243.674 370.981 244.317Z" fill="black"/>
<path d="M372.997 249.584L372.868 249.217C375.734 248.204 378.831 245.271 380.573 241.917L380.61 241.846L380.685 241.821C382.296 241.293 384 240.21 384.925 239.128C386.564 237.212 386.512 234.466 384.808 233.006C383.865 232.198 382.575 231.922 381.27 232.25L381.113 232.29L381.046 232.143C378.679 227.018 374.076 224.792 369.317 226.473L369.188 226.106C374.104 224.369 378.855 226.618 381.331 231.836C382.708 231.536 384.058 231.852 385.061 232.711C386.928 234.309 386.999 237.302 385.221 239.381C384.268 240.496 382.532 241.608 380.882 242.166C379.064 245.625 375.976 248.532 372.997 249.584ZM400.395 280.371C400.395 280.371 402.128 284.23 395.197 298.078C388.266 311.926 391.299 294.446 392.598 291.041C393.898 287.636 397.146 279.009 400.395 280.371Z" fill="black"/>
<path d="M377.654 272.172H375.705L375.965 269.051H376.354L377.654 272.172Z" fill="white"/>
<path d="M366.825 286.433C366.825 286.433 366.392 290.985 367.475 293.152C368.125 294.453 380.686 294.67 377.871 290.552C375.055 286.433 366.825 286.433 366.825 286.433Z" fill="#FAD0C9"/>
<path d="M398.662 281.448L381.299 273.62C379.784 272.937 378.075 272.823 376.483 273.301C370.247 275.175 354.143 280.057 351.015 281.448C347.116 283.182 349.065 288.384 353.83 287.3C358.595 286.217 366.608 283.833 366.608 283.833C366.608 283.833 377.004 295.537 380.903 295.97C384.801 296.404 389.349 295.103 389.349 295.103C389.349 295.103 396.063 294.453 399.095 289.468C402.127 284.483 398.662 281.448 398.662 281.448Z" fill="#FAD0C9"/>
<path d="M387.361 294.888C383.759 294.888 380.107 293.189 377.952 290.31C377.899 290.238 377.913 290.136 377.985 290.082C378.057 290.029 378.159 290.043 378.213 290.115C380.891 293.694 385.953 295.397 390.248 294.166C390.334 294.14 390.424 294.191 390.449 294.277C390.473 294.364 390.423 294.454 390.337 294.478C389.372 294.755 388.368 294.888 387.361 294.888ZM371.916 294.15C371.807 294.15 371.7 294.149 371.593 294.147C369.686 294.12 367.628 293.824 367.329 293.225C366.238 291.041 366.645 286.606 366.663 286.418C366.671 286.335 366.741 286.271 366.825 286.271C366.846 286.271 368.927 286.277 371.326 286.789C373.553 287.265 376.52 288.288 378.005 290.46C378.477 291.151 378.569 291.777 378.279 292.319C377.553 293.672 374.575 294.15 371.916 294.15ZM366.974 286.599C366.913 287.398 366.679 291.197 367.62 293.08C367.789 293.419 369.324 293.789 371.598 293.822C374.313 293.863 377.349 293.365 377.992 292.165C378.221 291.738 378.135 291.227 377.736 290.643C375.208 286.945 368.096 286.626 366.974 286.599Z" fill="black"/>
<path d="M369.857 276.03L364.047 283.212C363.168 284.299 363.264 285.879 364.269 286.851L368.991 291.419C368.991 291.419 370.507 292.285 372.239 290.552C372.239 290.552 376.138 292.502 379.17 290.118C379.17 290.118 384.584 292.069 386.967 287.951C389.349 283.833 383.285 284.483 383.285 284.483L381.552 281.882L383.068 278.414" fill="#FAD0C9"/>
<path d="M369.966 291.792C369.331 291.792 368.918 291.564 368.91 291.56C368.898 291.553 368.887 291.545 368.878 291.535L364.156 286.968C363.083 285.93 362.982 284.271 363.921 283.11L367.882 278.213C367.939 278.143 368.041 278.133 368.111 278.189C368.18 278.245 368.191 278.348 368.135 278.417L364.174 283.314C363.341 284.344 363.431 285.814 364.382 286.734L369.088 291.286C369.256 291.373 370.582 291.981 372.125 290.437C372.174 290.387 372.25 290.375 372.312 290.406C372.35 290.425 376.156 292.281 379.07 289.99C379.114 289.956 379.172 289.946 379.225 289.965C379.278 289.985 384.541 291.82 386.826 287.869C387.396 286.885 387.509 286.114 387.162 285.58C386.353 284.334 383.333 284.642 383.302 284.645C383.24 284.651 383.183 284.623 383.15 284.573L381.417 281.972C381.386 281.926 381.381 281.868 381.403 281.817L382.919 278.349C382.956 278.267 383.051 278.23 383.134 278.265C383.216 278.301 383.253 278.397 383.217 278.479L381.737 281.866L383.366 284.312C383.924 284.264 386.597 284.113 387.434 285.403C387.853 286.048 387.743 286.933 387.107 288.032C384.851 291.931 379.914 290.527 379.201 290.3C376.416 292.421 372.923 291.035 372.273 290.746C371.404 291.579 370.581 291.792 369.966 291.792Z" fill="black"/>
<path d="M379.17 290.281C379.114 290.281 379.06 290.252 379.03 290.2L375.422 284.062C374.938 283.239 374.839 282.249 375.15 281.346L376.466 277.528C376.495 277.443 376.587 277.397 376.672 277.427C376.757 277.456 376.802 277.549 376.773 277.634L375.457 281.452C375.177 282.265 375.266 283.156 375.702 283.897L379.31 290.036C379.355 290.113 379.33 290.213 379.252 290.258C379.226 290.273 379.198 290.281 379.17 290.281ZM372.24 290.714C372.187 290.714 372.136 290.689 372.105 290.643L368.458 285.248C367.622 284.01 367.648 282.366 368.524 281.157L370.685 278.169C370.738 278.097 370.839 278.08 370.912 278.133C370.985 278.186 371.001 278.287 370.948 278.36L368.787 281.347C367.991 282.447 367.967 283.941 368.727 285.066L372.374 290.461C372.424 290.535 372.405 290.636 372.33 290.686C372.302 290.705 372.271 290.714 372.24 290.714ZM342.568 319.541C342.557 319.541 342.545 319.54 342.534 319.537C342.446 319.518 342.39 319.432 342.409 319.344L354.321 263.642C354.34 263.554 354.429 263.498 354.514 263.517C354.601 263.536 354.658 263.622 354.639 263.71L342.727 319.412C342.711 319.488 342.643 319.541 342.568 319.541Z" fill="black"/>
<path d="M380.235 302.33L333.085 308.7L312.543 284.231C311.237 282.551 311.317 277.189 315.888 276.571L353.172 271.534C354.626 271.337 356.073 271.929 356.974 273.087L380.235 302.33Z" fill="#AF92CB"/>
<path d="M333.01 308.892L332.947 308.816L312.405 284.347C311.642 283.366 311.3 281.147 312.068 279.263C312.533 278.125 313.569 276.702 315.864 276.392L353.149 271.355C354.66 271.15 356.18 271.772 357.116 272.976L380.574 302.466L333.01 308.892ZM353.719 271.678C353.546 271.678 353.371 271.689 353.197 271.713L315.912 276.75C313.788 277.037 312.831 278.349 312.402 279.4C311.682 281.164 311.989 283.224 312.686 284.12L333.159 308.508L379.896 302.194L356.833 273.2C356.082 272.234 354.923 271.678 353.719 271.678Z" fill="black"/>
<path d="M376.094 302.858L331.689 308.857L312.544 284.231C311.237 282.551 312.243 280.086 314.351 279.802L351.657 274.762C353.11 274.565 354.558 275.157 355.458 276.315L376.094 302.858Z" fill="#624E76"/>
<path d="M331.61 309.05L312.401 284.342C311.748 283.501 311.598 282.411 312 281.425C312.402 280.439 313.272 279.765 314.327 279.623L351.633 274.583C353.142 274.379 354.664 275 355.6 276.204L376.429 302.995L376.118 303.037L331.61 309.05ZM352.203 274.905C352.03 274.905 351.856 274.917 351.681 274.94L314.375 279.98C313.45 280.105 312.687 280.696 312.334 281.561C311.981 282.426 312.113 283.383 312.686 284.12L331.768 308.665L375.759 302.721L355.316 276.426C354.566 275.462 353.408 274.905 352.203 274.905Z" fill="black"/>
<path d="M359.462 305.063L315.926 310.945L323.847 297.85L367.383 291.968L359.462 305.063Z" fill="#90D8E0"/>
<path d="M315.581 311.171L323.738 297.684L323.823 297.673L367.728 291.741L359.571 305.228L359.486 305.24L315.581 311.171ZM323.955 298.015L316.271 310.718L359.354 304.898L367.038 292.194L323.955 298.015Z" fill="black"/>
<path d="M359.462 305.063L367.383 291.968L376.094 302.858L359.462 305.063Z" fill="black"/>
<path d="M342.48 290.36C343.404 288.527 342.017 285.966 339.383 284.639C336.75 283.313 333.866 283.723 332.943 285.556C332.019 287.389 333.406 289.95 336.04 291.277C338.674 292.604 341.557 292.193 342.48 290.36Z" fill="white"/>
<path d="M339.154 292.197C336.753 292.197 334.116 290.711 333.016 288.642C332.42 287.523 332.352 286.398 332.824 285.476C333.3 284.546 334.264 283.939 335.537 283.767C338.111 283.42 341.194 284.992 342.408 287.274C343.003 288.393 343.072 289.518 342.599 290.44C342.123 291.37 341.159 291.977 339.886 292.149C339.646 292.182 339.401 292.197 339.154 292.197ZM336.276 284.002C336.04 284.002 335.806 284.017 335.575 284.048C334.397 284.208 333.51 284.761 333.077 285.605C332.648 286.443 332.715 287.474 333.266 288.509C334.429 290.694 337.38 292.201 339.848 291.868C341.027 291.708 341.914 291.155 342.346 290.311C342.775 289.474 342.708 288.442 342.157 287.407C341.103 285.426 338.577 284.002 336.276 284.002ZM370.157 292.41C369.851 292.597 369.418 292.51 369.19 292.215L364.342 285.937C364.114 285.642 364.178 285.252 364.485 285.065C364.791 284.878 365.224 284.965 365.452 285.26L370.3 291.538C370.528 291.833 370.464 292.224 370.157 292.41Z" fill="black"/>
<path d="M332.87 280.433C331.428 279.958 330.007 280.365 330.007 280.365C330.68 279.438 330.432 278.547 329.877 277.804C328.849 276.428 327 275.953 325.395 276.566C320.907 278.282 310.284 282.727 309.431 286.65C308.677 290.122 315.276 299.585 319.352 305.011C320.881 302.423 322.426 299.221 324.67 298.987C326.232 298.886 333.495 298.291 333.688 295.97C333.905 293.369 323.537 294.712 323.537 294.712L330.847 291.896C331.511 291.64 332.515 291.249 333.039 290.768C335.638 288.384 333.472 285.567 330.873 286.65L333.367 285.175C335.298 284.033 335.001 281.133 332.87 280.433Z" fill="#FAD0C9"/>
<path d="M318.961 285.729C318.9 285.729 318.841 285.695 318.814 285.636C318.776 285.554 318.81 285.458 318.892 285.419L329.937 280.218C330.019 280.179 330.115 280.214 330.153 280.296C330.191 280.377 330.157 280.474 330.076 280.512L319.03 285.714C319.008 285.724 318.984 285.729 318.961 285.729ZM321.56 291.148C321.499 291.148 321.44 291.113 321.413 291.054C321.375 290.973 321.409 290.876 321.491 290.838L332.536 285.636C332.618 285.597 332.714 285.633 332.752 285.714C332.79 285.795 332.756 285.892 332.674 285.93L321.629 291.132C321.606 291.143 321.583 291.148 321.56 291.148ZM325.718 299.066C325.632 299.066 325.561 298.999 325.556 298.912C325.551 298.822 325.62 298.746 325.71 298.741C331.65 298.432 333.335 296.466 333.351 296.446C333.409 296.376 333.511 296.366 333.58 296.423C333.649 296.48 333.66 296.581 333.603 296.651C333.534 296.736 331.836 298.748 325.727 299.066C325.724 299.066 325.721 299.066 325.718 299.066Z" fill="black"/>
<path d="M431.933 322.627C425.596 325.077 418.473 321.924 416.026 315.586L400.656 275.774C398.21 269.44 401.361 262.323 407.693 259.875C414.03 257.425 421.153 260.578 423.6 266.916L438.97 306.728C441.415 313.061 438.265 320.178 431.933 322.627Z" fill="#FFCC83"/>
<path d="M438.178 318.169C434.506 323.887 426.899 325.543 421.186 321.87L387.551 295.215C384.339 292.669 384.474 287.748 387.822 285.383L392.297 282.222C394.468 280.689 397.323 280.534 399.646 281.824L434.48 301.165C440.193 304.838 441.849 312.452 438.178 318.169Z" fill="#FAD0C9"/>
<path d="M428.767 325.013C424.741 326.164 397.62 307.605 391.459 303.337C392.093 303.383 393.254 301.963 395.197 298.079C402.127 284.231 400.395 280.371 400.395 280.371H400.393L400.395 280.365C400.395 280.365 426.818 290.118 436.847 303.144C446.877 316.17 433.315 323.713 428.767 325.013Z" fill="#FFCC83"/>
<path d="M424.539 292.635C424.509 292.635 424.478 292.626 424.45 292.608C413.712 285.582 401.22 280.848 400.382 280.533C400.334 280.53 400.29 280.506 400.261 280.467C400.231 280.425 400.222 280.371 400.238 280.321C400.251 280.279 400.283 280.241 400.323 280.222C400.362 280.203 400.409 280.197 400.451 280.212C400.58 280.26 413.535 285.078 424.628 292.336C424.703 292.385 424.724 292.486 424.675 292.561C424.644 292.609 424.592 292.635 424.539 292.635ZM415.959 319.444C415.93 319.444 415.902 319.436 415.876 319.421C406.468 313.856 394.737 305.806 391.366 303.471C391.292 303.42 391.274 303.319 391.325 303.245C391.376 303.171 391.477 303.152 391.551 303.203C394.92 305.536 406.642 313.581 416.041 319.141C416.119 319.187 416.144 319.287 416.099 319.364C416.068 319.415 416.014 319.444 415.959 319.444Z" fill="black"/>
<path d="M402.655 281.117C402.59 281.117 402.529 281.077 402.504 281.013L400.509 275.845C398.7 271.16 399.862 265.876 403.469 262.384C403.534 262.322 403.637 262.323 403.699 262.388C403.762 262.453 403.76 262.555 403.695 262.618C400.182 266.019 399.05 271.165 400.812 275.727L402.807 280.896C402.839 280.979 402.798 281.074 402.714 281.106C402.695 281.113 402.675 281.117 402.655 281.117Z" fill="black"/>
<path d="M416.638 322.846H331.908C317.076 322.846 306.284 336.932 310.135 351.266L329.573 423.63C329.573 423.63 352.314 437.935 380.036 429.482C380.036 429.482 377.004 404.34 377.654 398.488C378.304 392.636 383.718 361.426 383.718 361.426L401.689 362.741C412.567 364.242 421.797 354.789 420.045 343.941L416.638 322.846Z" fill="#B8C2D8"/>
<path d="M355.996 445.304H295.663C294.442 445.304 293.335 444.771 292.534 443.909C291.735 443.046 291.239 441.854 291.239 440.536C291.247 440.356 291.258 440.176 291.276 440.001C292.432 427.293 313.533 426.496 318.389 421.463C323.617 416.044 326.634 412.143 326.634 412.143C333.27 411.276 333.762 419.296 338.901 421.896C344.041 424.497 354.79 424.281 354.79 424.281L355.578 438.022L355.996 445.304Z" fill="#112E5B"/>
<path d="M356.168 445.467H295.663C294.436 445.467 293.282 444.953 292.415 444.019C291.552 443.087 291.076 441.851 291.076 440.536C291.085 440.346 291.096 440.163 291.114 439.985C291.883 431.538 301.403 428.273 309.052 425.649C313.12 424.255 316.632 423.05 318.272 421.35C323.433 416.001 326.476 412.083 326.506 412.044L326.547 411.99L326.613 411.982C330.654 411.455 332.45 414.106 334.351 416.913C335.617 418.782 336.925 420.714 338.975 421.751C344.02 424.304 354.678 424.119 354.787 424.118L354.943 424.115L356.168 445.467ZM326.721 412.296C326.338 412.784 323.354 416.552 318.506 421.576C316.811 423.332 313.264 424.549 309.158 425.957C301.597 428.55 292.187 431.777 291.437 440.016C291.42 440.189 291.409 440.367 291.401 440.544C291.401 441.768 291.846 442.927 292.653 443.798C293.458 444.665 294.527 445.142 295.663 445.142H355.824L354.636 424.445C354.013 424.451 351.607 424.458 348.76 424.226C345.707 423.977 341.506 423.397 338.828 422.041C336.703 420.966 335.371 418.999 334.082 417.096C332.249 414.389 330.518 411.833 326.721 412.296Z" fill="black"/>
<path d="M355.996 445.304H295.663C294.442 445.304 293.335 444.771 292.534 443.909C291.735 443.046 291.239 441.854 291.239 440.536C291.247 440.356 291.258 440.176 291.276 440.001L355.578 438.022L355.996 445.304ZM341.702 428.458C341.615 428.458 341.543 428.39 341.54 428.302L338.32 343.003C338.14 338.249 339.883 333.769 343.228 330.388C346.573 327.008 351.04 325.223 355.784 325.35L407.98 326.801C408.069 326.804 408.14 326.879 408.138 326.968C408.135 327.058 408.054 327.126 407.971 327.127L355.775 325.676C351.11 325.546 346.74 327.301 343.459 330.617C340.178 333.933 338.469 338.328 338.644 342.991L341.864 428.29C341.867 428.379 341.798 428.455 341.708 428.458C341.706 428.458 341.704 428.458 341.702 428.458Z" fill="black"/>
<path d="M381.769 373.509C381.761 373.509 381.752 373.508 381.743 373.507C381.655 373.493 381.594 373.409 381.609 373.321L385.074 351.647C385.088 351.558 385.171 351.498 385.26 351.512C385.348 351.526 385.409 351.61 385.394 351.698L381.929 373.372C381.916 373.452 381.848 373.509 381.769 373.509Z" fill="black"/>
<path d="M384.404 358.625C384.359 358.625 384.313 358.605 384.281 358.568C384.223 358.5 384.231 358.397 384.299 358.339C387.473 355.611 389.501 351.654 389.862 347.482C389.87 347.392 389.951 347.325 390.038 347.334C390.128 347.341 390.194 347.42 390.186 347.51C389.818 351.766 387.749 355.803 384.51 358.585C384.479 358.612 384.442 358.625 384.404 358.625Z" fill="black"/>
<path d="M378.712 236.691C378.645 236.94 378.286 236.947 378.217 236.699C377.895 235.553 377.267 234.514 377.52 233.352C377.723 232.424 377.747 230.686 376.682 230.172C375.877 229.783 374.717 230.502 373.505 231.011C369.902 232.526 363.153 235.229 358.997 232.728C357.725 231.962 355.878 229.713 355.341 228.328C354.803 226.942 354.61 225.451 354.42 223.977C358.078 225.015 361.983 225.169 365.71 224.421C368.118 223.939 370.502 223.082 372.953 223.224C375.405 223.365 378.031 224.903 378.361 227.338C379.783 226.307 381.924 226.432 383.217 227.62C384.485 228.786 383.667 232.143 383.667 232.143C382.47 231.876 381.078 231.949 380.151 233.113C379.366 234.1 379.05 235.433 378.712 236.691Z" fill="#7C4B33"/>
<path d="M384.675 443.137C384.496 446.468 384.151 449.423 384.151 449.423C384.151 449.423 329.357 449.856 320.91 449.423C317.512 449.247 313.12 448.332 311.814 445.304C311.476 444.522 311.268 443.805 311.181 443.137C310.776 439.951 313.17 437.909 317.878 435.768C322.565 433.635 336.504 422.33 336.504 422.33C336.504 422.33 338.453 413.877 344.084 413.444C349.715 413.01 349.065 422.113 360.977 423.414C372.889 424.714 378.6 418.637 378.6 418.637C378.6 418.637 378.953 421.68 382.635 429.266C383.904 431.88 384.478 434.543 384.686 436.914C384.842 438.683 384.792 440.989 384.675 443.137Z" fill="#112E5B"/>
<path d="M384.676 443.137C384.496 446.468 384.151 449.423 384.151 449.423C384.151 449.423 329.357 449.856 320.91 449.423C317.512 449.247 313.12 448.332 311.814 445.304C311.476 444.522 311.268 443.805 311.181 443.137H384.676Z" fill="black"/>
<path d="M341.043 449.776C331.667 449.776 323.702 449.729 320.902 449.585C318.068 449.439 313.1 448.696 311.665 445.369C311.321 444.573 311.11 443.849 311.02 443.158C310.576 439.667 313.414 437.62 317.811 435.62C322.298 433.578 335.504 422.929 336.359 422.238C336.544 421.499 338.629 413.7 344.072 413.281C346.552 413.09 347.831 414.657 349.445 416.64C351.575 419.257 354.225 422.513 360.995 423.252C367.112 423.919 371.545 422.595 374.187 421.365C377.043 420.037 378.468 418.54 378.482 418.525L378.721 418.271L378.762 418.618C378.765 418.648 379.161 421.735 382.781 429.194C383.908 431.515 384.603 434.107 384.848 436.9C384.983 438.433 384.98 440.535 384.838 443.146C384.66 446.444 384.316 449.412 384.313 449.441L384.296 449.584L384.153 449.585C383.788 449.588 359.642 449.776 341.043 449.776ZM344.462 413.591C344.343 413.591 344.221 413.596 344.097 413.606C338.65 414.025 336.681 422.283 336.662 422.367L336.65 422.421L336.606 422.456C336.467 422.569 322.597 433.799 317.945 435.916C312.831 438.242 310.979 440.261 311.342 443.117C311.428 443.777 311.631 444.472 311.963 445.24C313.329 448.406 318.16 449.118 320.919 449.26C329.052 449.678 380.873 449.285 384.006 449.261C384.076 448.631 384.358 446.006 384.513 443.128C384.654 440.533 384.659 438.447 384.525 436.929C384.283 434.176 383.598 431.621 382.489 429.337C379.449 423.073 378.674 419.923 378.491 418.971C377.981 419.446 376.611 420.596 374.324 421.66C371.644 422.907 367.149 424.251 360.96 423.575C354.058 422.822 351.36 419.508 349.193 416.845C347.723 415.039 346.545 413.591 344.462 413.591Z" fill="black"/>
</g>
</g>
<defs>
<clipPath id="clip0_1_819">
<rect width="550" height="550" fill="white"/>
</clipPath>
<clipPath id="clip1_1_819">
<rect width="394.662" height="337.62" fill="white" transform="translate(79.9287 85.7083)"/>
</clipPath>
<clipPath id="clip2_1_819">
<rect width="265.834" height="112.757" fill="white" transform="translate(156.75 118.828)"/>
</clipPath>
<clipPath id="clip3_1_819">
<rect width="105.702" height="56.8126" fill="white" transform="translate(31.9734 184.708)"/>
</clipPath>
<clipPath id="clip4_1_819">
<rect width="94.2014" height="84.1309" fill="white" transform="translate(45.1316 352.471)"/>
</clipPath>
<clipPath id="clip5_1_819">
<rect width="327.531" height="148.057" fill="white" transform="translate(124.97 287.375)"/>
</clipPath>
<clipPath id="clip6_1_819">
<rect width="62.303" height="73.7139" fill="white" transform="translate(56.595 279.125)"/>
</clipPath>
<clipPath id="clip7_1_819">
<rect width="71.0419" height="257.063" fill="white" transform="translate(450.542 180.022)"/>
</clipPath>
<clipPath id="clip8_1_819">
<rect width="130.167" height="222.09" fill="white" transform="translate(159.5 225.927)"/>
</clipPath>
<clipPath id="clip9_1_819">
<rect width="149.383" height="226.568" fill="white" transform="translate(291.076 223.208)"/>
</clipPath>
</defs>
</svg>
