<svg width="1077" height="206" viewBox="0 0 1077 206" fill="none" xmlns="http://www.w3.org/2000/svg">
<path d="M104.876 105.5L186.626 110.25V144.75C186.626 162.75 178.459 176.833 162.126 187C145.959 197.167 123.376 202.25 94.376 202.25C77.5426 202.25 62.626 200 49.626 195.5C36.626 191 26.2093 184.5 18.376 176C10.5426 167.333 5.87598 156.917 4.37598 144.75C3.87598 140.25 3.45931 134.333 3.12598 127C2.79264 119.5 2.62598 111.333 2.62598 102.5C2.62598 93.6667 2.79264 85.5833 3.12598 78.25C3.45931 70.9167 3.87598 65 4.37598 60.5C5.87598 48.1667 10.5426 37.75 18.376 29.25C26.2093 20.5833 36.626 14 49.626 9.5C62.626 4.83333 77.5426 2.5 94.376 2.5C113.376 2.5 129.709 4.83333 143.376 9.5C157.209 14.1667 167.876 20.8333 175.376 29.5C182.876 38 186.626 48.3333 186.626 60.5V83.25L104.876 92V71.75C104.876 67.25 102.626 65 98.126 65C93.626 65 91.376 67.25 91.376 71.75V132.5C91.376 137 93.626 139.25 98.126 139.25C102.626 139.25 104.876 137 104.876 132.5V105.5Z" fill="black"/>
<path d="M377.991 147C375.325 164.5 366.075 178.25 350.241 188.25C334.408 198.083 313.658 203 287.991 203C262.325 203 241.575 198.083 225.741 188.25C210.075 178.417 200.825 164.833 197.991 147.5C197.325 142.833 196.741 136.583 196.241 128.75C195.908 120.75 195.741 112.167 195.741 103C195.741 94.1667 195.908 86 196.241 78.5C196.741 70.8333 197.325 64.8333 197.991 60.5C200.825 42.1667 210.158 27.9167 225.991 17.75C241.825 7.58333 262.491 2.5 287.991 2.5C313.658 2.5 334.408 7.58333 350.241 17.75C366.075 27.75 375.325 41.6667 377.991 59.5C378.658 63.8333 379.158 69.8333 379.491 77.5C379.991 85 380.241 93.25 380.241 102.25C380.241 111.75 379.991 120.417 379.491 128.25C379.158 136.083 378.658 142.333 377.991 147ZM294.741 135.5V70C294.741 65.5 292.491 63.25 287.991 63.25C283.491 63.25 281.241 65.5 281.241 70V135.5C281.241 140 283.491 142.25 287.991 142.25C292.491 142.25 294.741 140 294.741 135.5Z" fill="black"/>
<path d="M469.595 123.5V133.75H546.095V199H390.845V6.49999H541.595V62.75H469.595V73H534.845V123.5H469.595Z" fill="black"/>
<path d="M554.64 6.49999H635.64V132C635.64 132.5 635.89 133.75 636.39 135.75C637.056 137.75 639.056 138.75 642.39 138.75C645.723 138.75 647.64 137.75 648.14 135.75C648.806 133.75 649.14 132.5 649.14 132V6.49999H730.14V135.5C730.14 144.667 728.64 153.333 725.64 161.5C722.64 169.5 717.723 176.667 710.89 183C704.056 189.167 694.806 194.083 683.14 197.75C671.64 201.25 657.306 203 640.14 203C624.973 203 611.973 201.167 601.14 197.5C590.306 193.833 581.473 188.833 574.64 182.5C567.806 176.167 562.723 169 559.39 161C556.223 153 554.64 144.667 554.64 136V6.49999Z" fill="black"/>
<path d="M899.495 92C890.662 86.6667 881.245 82.75 871.245 80.25C861.245 77.5833 849.245 75.75 835.245 74.75C834.078 74.5833 832.912 74.5 831.745 74.5C830.745 74.3333 829.745 74.25 828.745 74.25C825.245 74.25 823.495 75.6667 823.495 78.5C823.495 80.1667 824.412 81.3333 826.245 82C828.245 82.5 830.912 82.9167 834.245 83.25C840.745 84.0833 847.578 85.0833 854.745 86.25C861.912 87.25 868.912 88.8333 875.745 91C882.578 93.1667 888.745 96.3333 894.245 100.5C899.912 104.667 904.328 110.167 907.495 117C910.828 123.833 912.495 132.417 912.495 142.75C912.495 154.25 909.828 163.917 904.495 171.75C899.162 179.417 891.912 185.583 882.745 190.25C873.745 194.75 863.412 198 851.745 200C840.245 202 828.328 203 815.995 203C801.662 203.167 787.412 202.333 773.245 200.5C759.245 198.833 746.828 196.667 735.995 194L742.995 106C746.828 108.833 751.412 111.917 756.745 115.25C762.078 118.417 769.328 121.333 778.495 124C787.662 126.667 799.745 128.75 814.745 130.25C815.578 130.417 816.328 130.5 816.995 130.5C817.828 130.5 818.578 130.5 819.245 130.5C821.078 130.5 822.412 130.25 823.245 129.75C824.245 129.25 824.745 128.167 824.745 126.5C824.745 124.667 823.912 123.5 822.245 123C820.745 122.5 818.328 122 814.995 121.5C805.995 120.5 796.995 119.083 787.995 117.25C779.162 115.417 771.078 112.583 763.745 108.75C756.412 104.917 750.495 99.5833 745.995 92.75C741.662 85.9167 739.495 77 739.495 66C739.495 50.3333 743.162 37.9167 750.495 28.75C757.995 19.4167 768.078 12.75 780.745 8.74999C793.412 4.58333 807.578 2.5 823.245 2.5C836.412 2.5 850.162 3.75 864.495 6.25C878.828 8.58333 892.995 11.8333 906.995 16L899.495 92Z" fill="black"/>
<path d="M1059.44 140.695C1069.16 130.985 1074.61 117.814 1074.61 104.082C1074.61 90.3493 1069.16 77.1792 1059.44 67.4688C1049.73 57.7583 1036.56 52.3031 1022.83 52.3031C1009.1 52.3031 995.929 57.7583 986.219 67.4688L928 125.688V199H1001.31L1059.44 140.695Z" fill="black"/>
<path d="M104.876 105.5L104.992 103.503L102.876 103.38V105.5H104.876ZM186.626 110.25H188.626V108.363L186.742 108.253L186.626 110.25ZM162.126 187L161.069 185.302L161.061 185.307L162.126 187ZM49.626 195.5L50.2802 193.61L50.2802 193.61L49.626 195.5ZM18.376 176L16.8922 177.341L16.8987 177.348L16.9053 177.355L18.376 176ZM4.37598 144.75L2.38821 144.971L2.38954 144.983L2.39101 144.995L4.37598 144.75ZM3.12598 127L1.12795 127.089L1.12804 127.091L3.12598 127ZM4.37598 60.5L2.39061 60.2585L2.38935 60.2688L2.38821 60.2791L4.37598 60.5ZM18.376 29.25L19.8467 30.6054L19.8532 30.5983L19.8597 30.5911L18.376 29.25ZM49.626 9.5L50.2802 11.39L50.291 11.3862L50.3017 11.3824L49.626 9.5ZM143.376 9.5L142.73 11.3927L142.737 11.3951L143.376 9.5ZM175.376 29.5L173.864 30.8087L173.87 30.816L173.876 30.8232L175.376 29.5ZM186.626 83.25L186.839 85.2386L188.626 85.0473V83.25H186.626ZM104.876 92H102.876V94.2255L105.089 93.9886L104.876 92ZM377.991 147L379.968 147.301L379.97 147.292L379.971 147.283L377.991 147ZM350.241 188.25L351.296 189.949L351.303 189.945L351.309 189.941L350.241 188.25ZM225.741 188.25L224.678 189.944L224.686 189.949L225.741 188.25ZM197.991 147.5L196.011 147.783L196.014 147.803L196.017 147.823L197.991 147.5ZM196.241 128.75L194.243 128.833L194.244 128.855L194.245 128.877L196.241 128.75ZM196.241 78.5L194.245 78.3698L194.244 78.3905L194.243 78.4112L196.241 78.5ZM197.991 60.5L196.015 60.1945L196.014 60.1959L197.991 60.5ZM225.991 17.75L227.072 19.4329L227.072 19.4329L225.991 17.75ZM350.241 17.75L349.161 19.4329L349.167 19.437L349.173 19.441L350.241 17.75ZM377.991 59.5L376.013 59.7958L376.014 59.8041L377.991 59.5ZM379.491 77.5L377.493 77.5869L377.494 77.61L377.496 77.633L379.491 77.5ZM379.491 128.25L377.495 128.123L377.494 128.144L377.493 128.165L379.491 128.25ZM469.595 123.5V121.5H467.595V123.5H469.595ZM469.595 133.75H467.595V135.75H469.595V133.75ZM546.095 133.75H548.095V131.75H546.095V133.75ZM546.095 199V201H548.095V199H546.095ZM390.845 199H388.845V201H390.845V199ZM390.845 6.49999V4.49999H388.845V6.49999H390.845ZM541.595 6.49999H543.595V4.49999H541.595V6.49999ZM541.595 62.75V64.75H543.595V62.75H541.595ZM469.595 62.75V60.75H467.595V62.75H469.595ZM469.595 73H467.595V75H469.595V73ZM534.845 73H536.845V71H534.845V73ZM534.845 123.5V125.5H536.845V123.5H534.845ZM554.64 6.49999V4.49999H552.64V6.49999H554.64ZM635.64 6.49999H637.64V4.49999H635.64V6.49999ZM636.39 135.75L634.449 136.235L634.468 136.31L634.492 136.382L636.39 135.75ZM648.14 135.75L646.242 135.118L646.218 135.19L646.199 135.265L648.14 135.75ZM649.14 6.49999V4.49999H647.14V6.49999H649.14ZM730.14 6.49999H732.14V4.49999H730.14V6.49999ZM725.64 161.5L727.512 162.202L727.517 162.19L725.64 161.5ZM710.89 183L712.23 184.485L712.239 184.476L712.249 184.467L710.89 183ZM683.14 197.75L683.722 199.663L683.731 199.661L683.739 199.658L683.14 197.75ZM574.64 182.5L573.28 183.967L573.28 183.967L574.64 182.5ZM559.39 161L557.53 161.736L557.537 161.753L557.543 161.769L559.39 161ZM899.495 92L898.461 93.7121L901.174 95.3501L901.485 92.1964L899.495 92ZM871.245 80.25L870.73 82.1825L870.745 82.1865L870.76 82.1903L871.245 80.25ZM835.245 74.75L834.962 76.7299L835.032 76.7399L835.103 76.7449L835.245 74.75ZM831.745 74.5L831.416 76.4728L831.58 76.5H831.745V74.5ZM826.245 82L825.562 83.8796L825.659 83.9151L825.76 83.9403L826.245 82ZM834.245 83.25L834.499 81.2662L834.472 81.2627L834.444 81.2599L834.245 83.25ZM854.745 86.25L854.424 88.224L854.446 88.2277L854.469 88.2308L854.745 86.25ZM875.745 91L875.141 92.9065L875.141 92.9065L875.745 91ZM894.245 100.5L893.037 102.094L893.049 102.103L893.06 102.111L894.245 100.5ZM907.495 117L905.68 117.841L905.689 117.859L905.698 117.877L907.495 117ZM904.495 171.75L906.137 172.892L906.143 172.884L906.148 172.876L904.495 171.75ZM882.745 190.25L883.64 192.039L883.646 192.036L883.652 192.032L882.745 190.25ZM851.745 200L851.407 198.029L851.402 198.03L851.745 200ZM815.995 203V201H815.983L815.972 201L815.995 203ZM773.245 200.5L773.502 198.517L773.492 198.515L773.482 198.514L773.245 200.5ZM735.995 194L734.001 193.841L733.867 195.536L735.517 195.942L735.995 194ZM742.995 106L744.184 104.392L741.287 102.251L741.001 105.841L742.995 106ZM756.745 115.25L755.685 116.946L755.704 116.958L755.724 116.97L756.745 115.25ZM778.495 124L779.054 122.08L779.054 122.08L778.495 124ZM814.745 130.25L815.137 128.289L815.041 128.27L814.944 128.26L814.745 130.25ZM823.245 129.75L822.351 127.961L822.282 127.995L822.216 128.035L823.245 129.75ZM822.245 123L821.613 124.897L821.641 124.907L821.67 124.916L822.245 123ZM814.995 121.5L815.292 119.522L815.254 119.516L815.216 119.512L814.995 121.5ZM787.995 117.25L787.589 119.208L787.596 119.21L787.995 117.25ZM763.745 108.75L764.672 106.978L764.672 106.978L763.745 108.75ZM745.995 92.75L744.306 93.8211L744.315 93.8356L744.325 93.85L745.995 92.75ZM750.495 28.75L748.936 27.4972L748.933 27.5006L750.495 28.75ZM780.745 8.74999L781.347 10.6572L781.359 10.6536L781.37 10.6498L780.745 8.74999ZM864.495 6.25L864.151 8.22025L864.163 8.22219L864.174 8.22401L864.495 6.25ZM906.995 16L908.985 16.1964L909.148 14.5539L907.566 14.0831L906.995 16ZM1059.44 140.695L1058.03 139.281L1058.03 139.283L1059.44 140.695ZM1022.83 52.3031V50.3031V52.3031ZM986.219 67.4688L984.805 66.0545L984.805 66.0545L986.219 67.4688ZM928 125.688L926.586 124.273C926.211 124.648 926 125.157 926 125.688H928ZM928 199H926C926 200.105 926.895 201 928 201V199ZM1001.31 199V201C1001.84 201 1002.35 200.788 1002.73 200.412L1001.31 199ZM1024.29 105.539C1025.07 104.758 1025.07 103.492 1024.29 102.711C1023.51 101.93 1022.24 101.93 1021.46 102.711L1024.29 105.539ZM1035.81 166.5C1036.92 166.5 1037.81 165.605 1037.81 164.5C1037.81 163.395 1036.92 162.5 1035.81 162.5V166.5ZM962.5 162.5C961.395 162.5 960.5 163.395 960.5 164.5C960.5 165.605 961.395 166.5 962.5 166.5V162.5ZM104.76 107.497L186.51 112.247L186.742 108.253L104.992 103.503L104.76 107.497ZM184.626 110.25V144.75H188.626V110.25H184.626ZM184.626 144.75C184.626 162.004 176.865 175.47 161.069 185.302L163.183 188.698C180.054 178.196 188.626 163.496 188.626 144.75H184.626ZM161.061 185.307C145.338 195.195 123.181 200.25 94.376 200.25V204.25C123.571 204.25 146.58 199.139 163.191 188.693L161.061 185.307ZM94.376 200.25C77.7173 200.25 63.0287 198.023 50.2802 193.61L48.9718 197.39C62.2232 201.977 77.368 204.25 94.376 204.25V200.25ZM50.2802 193.61C37.5331 189.198 27.4173 182.86 19.8467 174.645L16.9053 177.355C25.0014 186.14 35.7188 192.802 48.9718 197.39L50.2802 193.61ZM19.8597 174.659C12.3164 166.313 7.81325 156.285 6.36095 144.505L2.39101 144.995C3.93871 157.548 8.76893 168.354 16.8922 177.341L19.8597 174.659ZM6.36374 144.529C5.87056 140.09 5.45632 134.222 5.12391 126.909L1.12804 127.091C1.4623 134.445 1.8814 140.41 2.38821 144.971L6.36374 144.529ZM5.124 126.911C4.79219 119.445 4.62598 111.309 4.62598 102.5H0.625977C0.625977 111.358 0.793096 119.555 1.12795 127.089L5.124 126.911ZM4.62598 102.5C4.62598 93.6911 4.7922 85.6386 5.12391 78.3408L1.12804 78.1592C0.793089 85.5281 0.625977 93.6422 0.625977 102.5H4.62598ZM5.12391 78.3408C5.45632 71.0279 5.87056 65.1596 6.36374 60.7209L2.38821 60.2791C1.8814 64.8404 1.4623 70.8055 1.12804 78.1592L5.12391 78.3408ZM6.36135 60.7415C7.81475 48.7913 12.3191 38.7736 19.8467 30.6054L16.9053 27.8946C8.76623 36.7264 3.9372 47.5421 2.39061 60.2585L6.36135 60.7415ZM19.8597 30.5911C27.4301 22.2153 37.5418 15.7994 50.2802 11.39L48.9718 7.61003C35.7101 12.2006 24.9885 18.9513 16.8922 27.9089L19.8597 30.5911ZM50.3017 11.3824C63.0434 6.80846 77.7243 4.5 94.376 4.5V0.5C77.361 0.5 62.2086 2.85821 48.9503 7.61761L50.3017 11.3824ZM94.376 4.5C113.221 4.5 129.325 6.8155 142.73 11.3927L144.022 7.6073C130.094 2.85117 113.531 0.5 94.376 0.5V4.5ZM142.737 11.3951C156.323 15.9784 166.653 22.4763 173.864 30.8087L176.888 28.1912C169.099 19.1903 158.096 12.3549 144.015 7.60493L142.737 11.3951ZM173.876 30.8232C181.029 38.9298 184.626 48.7819 184.626 60.5H188.626C188.626 47.8848 184.723 37.0702 176.876 28.1768L173.876 30.8232ZM184.626 60.5V83.25H188.626V60.5H184.626ZM186.413 81.2614L104.663 90.0114L105.089 93.9886L186.839 85.2386L186.413 81.2614ZM106.876 92V71.75H102.876V92H106.876ZM106.876 71.75C106.876 69.1917 106.235 66.9056 104.603 65.2733C102.97 63.6409 100.684 63 98.126 63V67C100.068 67 101.157 67.4841 101.774 68.1017C102.392 68.7194 102.876 69.8083 102.876 71.75H106.876ZM98.126 63C95.5677 63 93.2816 63.6409 91.6493 65.2733C90.0169 66.9056 89.376 69.1917 89.376 71.75H93.376C93.376 69.8083 93.8601 68.7194 94.4777 68.1017C95.0953 67.4841 96.1843 67 98.126 67V63ZM89.376 71.75V132.5H93.376V71.75H89.376ZM89.376 132.5C89.376 135.058 90.0169 137.344 91.6493 138.977C93.2816 140.609 95.5677 141.25 98.126 141.25V137.25C96.1843 137.25 95.0953 136.766 94.4777 136.148C93.8601 135.531 93.376 134.442 93.376 132.5H89.376ZM98.126 141.25C100.684 141.25 102.97 140.609 104.603 138.977C106.235 137.344 106.876 135.058 106.876 132.5H102.876C102.876 134.442 102.392 135.531 101.774 136.148C101.157 136.766 100.068 137.25 98.126 137.25V141.25ZM106.876 132.5V105.5H102.876V132.5H106.876ZM376.014 146.699C373.44 163.589 364.549 176.848 349.173 186.559L351.309 189.941C367.6 179.652 377.209 165.411 379.968 147.301L376.014 146.699ZM349.186 186.551C333.768 196.127 313.42 201 287.991 201V205C313.895 205 335.048 200.04 351.296 189.949L349.186 186.551ZM287.991 201C262.562 201 242.215 196.127 226.796 186.551L224.686 189.949C240.934 200.04 262.087 205 287.991 205V201ZM226.804 186.556C211.595 177.01 202.7 163.911 199.965 147.177L196.017 147.823C198.949 165.756 208.554 179.824 224.678 189.944L226.804 186.556ZM199.971 147.217C199.315 142.625 198.736 136.433 198.237 128.623L194.245 128.877C194.747 136.734 195.334 143.042 196.011 147.783L199.971 147.217ZM198.239 128.667C197.907 120.698 197.741 112.143 197.741 103H193.741C193.741 112.191 193.908 120.802 194.243 128.833L198.239 128.667ZM197.741 103C197.741 94.1913 197.907 86.0546 198.239 78.5888L194.243 78.4112C193.908 85.9454 193.741 94.1421 193.741 103H197.741ZM198.237 78.6302C198.736 70.9855 199.314 65.0525 199.968 60.8041L196.014 60.1959C195.335 64.6142 194.747 70.6812 194.245 78.3698L198.237 78.6302ZM199.968 60.8055C202.712 43.0476 211.713 29.2951 227.072 19.4329L224.911 16.0671C208.603 26.5383 198.937 41.2857 196.015 60.1945L199.968 60.8055ZM227.072 19.4329C242.487 9.53466 262.742 4.5 287.991 4.5V0.5C262.24 0.5 241.162 5.63201 224.911 16.0671L227.072 19.4329ZM287.991 4.5C313.41 4.5 333.747 9.53584 349.161 19.4329L351.322 16.0671C335.069 5.63082 313.906 0.5 287.991 0.5V4.5ZM349.173 19.441C364.536 29.1441 373.436 42.5626 376.013 59.7958L379.969 59.2042C377.213 40.7707 367.613 26.3559 351.309 16.059L349.173 19.441ZM376.014 59.8041C376.665 64.0315 377.161 69.9478 377.493 77.5869L381.489 77.4131C381.155 69.7189 380.651 63.6352 379.968 59.1959L376.014 59.8041ZM377.496 77.633C377.992 85.0811 378.241 93.286 378.241 102.25H382.241C382.241 93.214 381.99 84.9188 381.487 77.367L377.496 77.633ZM378.241 102.25C378.241 111.716 377.992 120.339 377.495 128.123L381.487 128.377C381.99 120.494 382.241 111.784 382.241 102.25H378.241ZM377.493 128.165C377.161 135.969 376.665 142.145 376.011 146.717L379.971 147.283C380.651 142.522 381.155 136.197 381.489 128.335L377.493 128.165ZM296.741 135.5V70H292.741V135.5H296.741ZM296.741 70C296.741 67.4417 296.1 65.1556 294.468 63.5233C292.836 61.8909 290.55 61.25 287.991 61.25V65.25C289.933 65.25 291.022 65.7341 291.639 66.3517C292.257 66.9693 292.741 68.0583 292.741 70H296.741ZM287.991 61.25C285.433 61.25 283.147 61.8909 281.514 63.5233C279.882 65.1556 279.241 67.4417 279.241 70H283.241C283.241 68.0583 283.725 66.9693 284.343 66.3517C284.961 65.7341 286.049 65.25 287.991 65.25V61.25ZM279.241 70V135.5H283.241V70H279.241ZM279.241 135.5C279.241 138.058 279.882 140.344 281.514 141.977C283.147 143.609 285.433 144.25 287.991 144.25V140.25C286.049 140.25 284.961 139.766 284.343 139.148C283.725 138.531 283.241 137.442 283.241 135.5H279.241ZM287.991 144.25C290.55 144.25 292.836 143.609 294.468 141.977C296.1 140.344 296.741 138.058 296.741 135.5H292.741C292.741 137.442 292.257 138.531 291.639 139.148C291.022 139.766 289.933 140.25 287.991 140.25V144.25ZM467.595 123.5V133.75H471.595V123.5H467.595ZM469.595 135.75H546.095V131.75H469.595V135.75ZM544.095 133.75V199H548.095V133.75H544.095ZM546.095 197H390.845V201H546.095V197ZM392.845 199V6.49999H388.845V199H392.845ZM390.845 8.49999H541.595V4.49999H390.845V8.49999ZM539.595 6.49999V62.75H543.595V6.49999H539.595ZM541.595 60.75H469.595V64.75H541.595V60.75ZM467.595 62.75V73H471.595V62.75H467.595ZM469.595 75H534.845V71H469.595V75ZM532.845 73V123.5H536.845V73H532.845ZM534.845 121.5H469.595V125.5H534.845V121.5ZM554.64 8.49999H635.64V4.49999H554.64V8.49999ZM633.64 6.49999V132H637.64V6.49999H633.64ZM633.64 132C633.64 132.472 633.743 133.089 633.866 133.705C634 134.374 634.196 135.221 634.449 136.235L638.33 135.265C638.084 134.279 637.904 133.501 637.788 132.92C637.73 132.63 637.691 132.403 637.666 132.233C637.64 132.048 637.64 131.985 637.64 132H633.64ZM634.492 136.382C635.579 139.643 638.781 140.75 642.39 140.75V136.75C639.332 136.75 638.534 135.857 638.287 135.118L634.492 136.382ZM642.39 140.75C644.22 140.75 645.895 140.481 647.252 139.773C648.69 139.023 649.684 137.82 650.08 136.235L646.199 135.265C646.096 135.68 645.881 135.977 645.402 136.227C644.843 136.519 643.893 136.75 642.39 136.75V140.75ZM650.037 136.382C650.376 135.365 650.641 134.509 650.822 133.828C650.985 133.218 651.14 132.545 651.14 132H647.14C647.14 131.955 647.128 132.157 646.957 132.797C646.805 133.366 646.57 134.135 646.242 135.118L650.037 136.382ZM651.14 132V6.49999H647.14V132H651.14ZM649.14 8.49999H730.14V4.49999H649.14V8.49999ZM728.14 6.49999V135.5H732.14V6.49999H728.14ZM728.14 135.5C728.14 144.444 726.677 152.876 723.762 160.81L727.517 162.19C730.602 153.79 732.14 144.889 732.14 135.5H728.14ZM723.767 160.798C720.886 168.481 716.156 175.392 709.53 181.533L712.249 184.467C719.29 177.942 724.393 170.519 727.512 162.202L723.767 160.798ZM709.55 181.515C702.988 187.437 694.018 192.235 682.54 195.842L683.739 199.658C695.594 195.932 705.125 190.896 712.23 184.485L709.55 181.515ZM682.557 195.837C671.308 199.26 657.186 201 640.14 201V205C657.427 205 671.972 203.24 683.722 199.663L682.557 195.837ZM640.14 201C625.124 201 612.353 199.184 601.781 195.606L600.498 199.394C611.593 203.15 624.822 205 640.14 205V201ZM601.781 195.606C591.155 192.009 582.584 187.137 575.999 181.033L573.28 183.967C580.362 190.53 589.457 195.657 600.498 199.394L601.781 195.606ZM575.999 181.033C569.36 174.88 564.451 167.947 561.236 160.231L557.543 161.769C560.995 170.053 566.252 177.453 573.28 183.967L575.999 181.033ZM561.249 160.264C558.176 152.5 556.64 144.417 556.64 136H552.64C552.64 144.917 554.27 153.5 557.53 161.736L561.249 160.264ZM556.64 136V6.49999H552.64V136H556.64ZM900.529 90.2879C891.525 84.8517 881.924 80.8581 871.73 78.3097L870.76 82.1903C880.567 84.6419 889.798 88.4816 898.461 93.7121L900.529 90.2879ZM871.76 78.3175C861.604 75.6092 849.472 73.7611 835.388 72.7551L835.103 76.7449C849.018 77.7389 860.886 79.5575 870.73 82.1825L871.76 78.3175ZM835.528 72.7701C834.269 72.5902 833.007 72.5 831.745 72.5V76.5C832.816 76.5 833.888 76.5765 834.962 76.7299L835.528 72.7701ZM832.074 72.5272C830.967 72.3427 829.857 72.25 828.745 72.25V76.25C829.633 76.25 830.523 76.324 831.416 76.4728L832.074 72.5272ZM828.745 72.25C826.777 72.25 824.93 72.6398 823.549 73.758C822.087 74.9416 821.495 76.6501 821.495 78.5H825.495C825.495 77.5166 825.778 77.1001 826.066 76.867C826.435 76.5685 827.213 76.25 828.745 76.25V72.25ZM821.495 78.5C821.495 79.7232 821.841 80.8817 822.61 81.8606C823.361 82.8162 824.402 83.458 825.562 83.8796L826.929 80.1204C826.255 79.8753 825.921 79.6005 825.755 79.3894C825.608 79.2017 825.495 78.9435 825.495 78.5H821.495ZM825.76 83.9403C827.894 84.4737 830.668 84.9022 834.046 85.2401L834.444 81.2599C831.156 80.9311 828.597 80.5263 826.73 80.0597L825.76 83.9403ZM833.991 85.2338C840.466 86.0639 847.277 87.0606 854.424 88.224L855.066 84.276C847.88 83.1061 841.024 82.1027 834.499 81.2662L833.991 85.2338ZM854.469 88.2308C861.525 89.2154 868.415 90.7741 875.141 92.9065L876.35 89.0935C869.408 86.8926 862.298 85.2846 855.022 84.2692L854.469 88.2308ZM875.141 92.9065C881.765 95.0069 887.726 98.0706 893.037 102.094L895.453 98.9058C889.764 94.5961 883.392 91.3264 876.35 89.0935L875.141 92.9065ZM893.06 102.111C898.436 106.064 902.645 111.291 905.68 117.841L909.31 116.159C906.012 109.042 901.387 103.269 895.43 98.8887L893.06 102.111ZM905.698 117.877C908.859 124.357 910.495 132.617 910.495 142.75H914.495C914.495 132.216 912.798 123.309 909.293 116.123L905.698 117.877ZM910.495 142.75C910.495 153.935 907.905 163.188 902.842 170.624L906.148 172.876C911.752 164.645 914.495 154.565 914.495 142.75H910.495ZM902.853 170.608C897.727 177.977 890.741 183.935 881.838 188.468L883.652 192.032C893.083 187.232 900.597 180.856 906.137 172.892L902.853 170.608ZM881.851 188.461C873.054 192.86 862.914 196.056 851.407 198.029L852.083 201.971C863.91 199.944 874.436 196.64 883.64 192.039L881.851 188.461ZM851.402 198.03C840.022 200.009 828.22 201 815.995 201V205C828.437 205 840.468 203.991 852.088 201.97L851.402 198.03ZM815.972 201C801.732 201.166 787.575 200.338 773.502 198.517L772.988 202.483C787.248 204.329 801.592 205.168 816.018 205L815.972 201ZM773.482 198.514C759.543 196.855 747.209 194.701 736.473 192.058L735.517 195.942C746.447 198.633 758.947 200.812 773.009 202.486L773.482 198.514ZM737.989 194.159L744.989 106.159L741.001 105.841L734.001 193.841L737.989 194.159ZM741.806 107.608C745.692 110.48 750.321 113.593 755.685 116.946L757.805 113.554C752.503 110.24 747.965 107.186 744.184 104.392L741.806 107.608ZM755.724 116.97C761.258 120.256 768.685 123.229 777.936 125.92L779.054 122.08C769.972 119.438 762.899 116.578 757.766 113.53L755.724 116.97ZM777.936 125.92C787.268 128.635 799.486 130.734 814.546 132.24L814.944 128.26C800.005 126.766 788.056 124.698 779.054 122.08L777.936 125.92ZM814.353 132.211C815.282 132.397 816.167 132.5 816.995 132.5V128.5C816.49 128.5 815.875 128.436 815.137 128.289L814.353 132.211ZM816.995 132.5C816.997 132.5 816.998 132.5 817 132.5C817.002 132.5 817.003 132.5 817.005 132.5C817.007 132.5 817.008 132.5 817.01 132.5C817.011 132.5 817.013 132.5 817.015 132.5C817.016 132.5 817.018 132.5 817.02 132.5C817.021 132.5 817.023 132.5 817.024 132.5C817.026 132.5 817.028 132.5 817.029 132.5C817.031 132.5 817.032 132.5 817.034 132.5C817.036 132.5 817.037 132.5 817.039 132.5C817.041 132.5 817.042 132.5 817.044 132.5C817.045 132.5 817.047 132.5 817.049 132.5C817.05 132.5 817.052 132.5 817.054 132.5C817.055 132.5 817.057 132.5 817.058 132.5C817.06 132.5 817.062 132.5 817.063 132.5C817.065 132.5 817.067 132.5 817.068 132.5C817.07 132.5 817.071 132.5 817.073 132.5C817.075 132.5 817.076 132.5 817.078 132.5C817.079 132.5 817.081 132.5 817.083 132.5C817.084 132.5 817.086 132.5 817.088 132.5C817.089 132.5 817.091 132.5 817.092 132.5C817.094 132.5 817.096 132.5 817.097 132.5C817.099 132.5 817.1 132.5 817.102 132.5C817.104 132.5 817.105 132.5 817.107 132.5C817.109 132.5 817.11 132.5 817.112 132.5C817.113 132.5 817.115 132.5 817.117 132.5C817.118 132.5 817.12 132.5 817.121 132.5C817.123 132.5 817.125 132.5 817.126 132.5C817.128 132.5 817.129 132.5 817.131 132.5C817.133 132.5 817.134 132.5 817.136 132.5C817.138 132.5 817.139 132.5 817.141 132.5C817.142 132.5 817.144 132.5 817.146 132.5C817.147 132.5 817.149 132.5 817.15 132.5C817.152 132.5 817.154 132.5 817.155 132.5C817.157 132.5 817.158 132.5 817.16 132.5C817.162 132.5 817.163 132.5 817.165 132.5C817.166 132.5 817.168 132.5 817.17 132.5C817.171 132.5 817.173 132.5 817.174 132.5C817.176 132.5 817.178 132.5 817.179 132.5C817.181 132.5 817.182 132.5 817.184 132.5C817.186 132.5 817.187 132.5 817.189 132.5C817.191 132.5 817.192 132.5 817.194 132.5C817.195 132.5 817.197 132.5 817.199 132.5C817.2 132.5 817.202 132.5 817.203 132.5C817.205 132.5 817.207 132.5 817.208 132.5C817.21 132.5 817.211 132.5 817.213 132.5C817.215 132.5 817.216 132.5 817.218 132.5C817.219 132.5 817.221 132.5 817.223 132.5C817.224 132.5 817.226 132.5 817.227 132.5C817.229 132.5 817.23 132.5 817.232 132.5C817.234 132.5 817.235 132.5 817.237 132.5C817.238 132.5 817.24 132.5 817.242 132.5C817.243 132.5 817.245 132.5 817.246 132.5C817.248 132.5 817.25 132.5 817.251 132.5C817.253 132.5 817.254 132.5 817.256 132.5C817.258 132.5 817.259 132.5 817.261 132.5C817.262 132.5 817.264 132.5 817.266 132.5C817.267 132.5 817.269 132.5 817.27 132.5C817.272 132.5 817.274 132.5 817.275 132.5C817.277 132.5 817.278 132.5 817.28 132.5C817.281 132.5 817.283 132.5 817.285 132.5C817.286 132.5 817.288 132.5 817.289 132.5C817.291 132.5 817.293 132.5 817.294 132.5C817.296 132.5 817.297 132.5 817.299 132.5C817.301 132.5 817.302 132.5 817.304 132.5C817.305 132.5 817.307 132.5 817.308 132.5C817.31 132.5 817.312 132.5 817.313 132.5C817.315 132.5 817.316 132.5 817.318 132.5C817.32 132.5 817.321 132.5 817.323 132.5C817.324 132.5 817.326 132.5 817.327 132.5C817.329 132.5 817.331 132.5 817.332 132.5C817.334 132.5 817.335 132.5 817.337 132.5C817.339 132.5 817.34 132.5 817.342 132.5C817.343 132.5 817.345 132.5 817.346 132.5C817.348 132.5 817.35 132.5 817.351 132.5C817.353 132.5 817.354 132.5 817.356 132.5C817.358 132.5 817.359 132.5 817.361 132.5C817.362 132.5 817.364 132.5 817.365 132.5C817.367 132.5 817.369 132.5 817.37 132.5C817.372 132.5 817.373 132.5 817.375 132.5C817.376 132.5 817.378 132.5 817.38 132.5C817.381 132.5 817.383 132.5 817.384 132.5C817.386 132.5 817.388 132.5 817.389 132.5C817.391 132.5 817.392 132.5 817.394 132.5C817.395 132.5 817.397 132.5 817.399 132.5C817.4 132.5 817.402 132.5 817.403 132.5C817.405 132.5 817.406 132.5 817.408 132.5C817.41 132.5 817.411 132.5 817.413 132.5C817.414 132.5 817.416 132.5 817.417 132.5C817.419 132.5 817.421 132.5 817.422 132.5C817.424 132.5 817.425 132.5 817.427 132.5C817.428 132.5 817.43 132.5 817.432 132.5C817.433 132.5 817.435 132.5 817.436 132.5C817.438 132.5 817.439 132.5 817.441 132.5C817.443 132.5 817.444 132.5 817.446 132.5C817.447 132.5 817.449 132.5 817.45 132.5C817.452 132.5 817.454 132.5 817.455 132.5C817.457 132.5 817.458 132.5 817.46 132.5C817.461 132.5 817.463 132.5 817.464 132.5C817.466 132.5 817.468 132.5 817.469 132.5C817.471 132.5 817.472 132.5 817.474 132.5C817.475 132.5 817.477 132.5 817.479 132.5C817.48 132.5 817.482 132.5 817.483 132.5C817.485 132.5 817.486 132.5 817.488 132.5C817.489 132.5 817.491 132.5 817.493 132.5C817.494 132.5 817.496 132.5 817.497 132.5C817.499 132.5 817.5 132.5 817.502 132.5C817.504 132.5 817.505 132.5 817.507 132.5C817.508 132.5 817.51 132.5 817.511 132.5C817.513 132.5 817.514 132.5 817.516 132.5C817.518 132.5 817.519 132.5 817.521 132.5C817.522 132.5 817.524 132.5 817.525 132.5C817.527 132.5 817.528 132.5 817.53 132.5C817.532 132.5 817.533 132.5 817.535 132.5C817.536 132.5 817.538 132.5 817.539 132.5C817.541 132.5 817.542 132.5 817.544 132.5C817.546 132.5 817.547 132.5 817.549 132.5C817.55 132.5 817.552 132.5 817.553 132.5C817.555 132.5 817.556 132.5 817.558 132.5C817.56 132.5 817.561 132.5 817.563 132.5C817.564 132.5 817.566 132.5 817.567 132.5C817.569 132.5 817.57 132.5 817.572 132.5C817.574 132.5 817.575 132.5 817.577 132.5C817.578 132.5 817.58 132.5 817.581 132.5C817.583 132.5 817.584 132.5 817.586 132.5C817.587 132.5 817.589 132.5 817.591 132.5C817.592 132.5 817.594 132.5 817.595 132.5C817.597 132.5 817.598 132.5 817.6 132.5C817.601 132.5 817.603 132.5 817.604 132.5C817.606 132.5 817.608 132.5 817.609 132.5C817.611 132.5 817.612 132.5 817.614 132.5C817.615 132.5 817.617 132.5 817.618 132.5C817.62 132.5 817.621 132.5 817.623 132.5C817.625 132.5 817.626 132.5 817.628 132.5C817.629 132.5 817.631 132.5 817.632 132.5C817.634 132.5 817.635 132.5 817.637 132.5C817.638 132.5 817.64 132.5 817.642 132.5C817.643 132.5 817.645 132.5 817.646 132.5C817.648 132.5 817.649 132.5 817.651 132.5C817.652 132.5 817.654 132.5 817.655 132.5C817.657 132.5 817.658 132.5 817.66 132.5C817.662 132.5 817.663 132.5 817.665 132.5C817.666 132.5 817.668 132.5 817.669 132.5C817.671 132.5 817.672 132.5 817.674 132.5C817.675 132.5 817.677 132.5 817.678 132.5C817.68 132.5 817.682 132.5 817.683 132.5C817.685 132.5 817.686 132.5 817.688 132.5C817.689 132.5 817.691 132.5 817.692 132.5C817.694 132.5 817.695 132.5 817.697 132.5C817.698 132.5 817.7 132.5 817.701 132.5C817.703 132.5 817.705 132.5 817.706 132.5C817.708 132.5 817.709 132.5 817.711 132.5C817.712 132.5 817.714 132.5 817.715 132.5C817.717 132.5 817.718 132.5 817.72 132.5C817.721 132.5 817.723 132.5 817.724 132.5C817.726 132.5 817.728 132.5 817.729 132.5C817.731 132.5 817.732 132.5 817.734 132.5C817.735 132.5 817.737 132.5 817.738 132.5C817.74 132.5 817.741 132.5 817.743 132.5C817.744 132.5 817.746 132.5 817.747 132.5C817.749 132.5 817.75 132.5 817.752 132.5C817.753 132.5 817.755 132.5 817.757 132.5C817.758 132.5 817.76 132.5 817.761 132.5C817.763 132.5 817.764 132.5 817.766 132.5C817.767 132.5 817.769 132.5 817.77 132.5C817.772 132.5 817.773 132.5 817.775 132.5C817.776 132.5 817.778 132.5 817.779 132.5C817.781 132.5 817.782 132.5 817.784 132.5C817.785 132.5 817.787 132.5 817.789 132.5C817.79 132.5 817.792 132.5 817.793 132.5C817.795 132.5 817.796 132.5 817.798 132.5C817.799 132.5 817.801 132.5 817.802 132.5C817.804 132.5 817.805 132.5 817.807 132.5C817.808 132.5 817.81 132.5 817.811 132.5C817.813 132.5 817.814 132.5 817.816 132.5C817.817 132.5 817.819 132.5 817.82 132.5C817.822 132.5 817.823 132.5 817.825 132.5C817.826 132.5 817.828 132.5 817.829 132.5C817.831 132.5 817.833 132.5 817.834 132.5C817.836 132.5 817.837 132.5 817.839 132.5C817.84 132.5 817.842 132.5 817.843 132.5C817.845 132.5 817.846 132.5 817.848 132.5C817.849 132.5 817.851 132.5 817.852 132.5C817.854 132.5 817.855 132.5 817.857 132.5C817.858 132.5 817.86 132.5 817.861 132.5C817.863 132.5 817.864 132.5 817.866 132.5C817.867 132.5 817.869 132.5 817.87 132.5C817.872 132.5 817.873 132.5 817.875 132.5C817.876 132.5 817.878 132.5 817.879 132.5C817.881 132.5 817.882 132.5 817.884 132.5C817.885 132.5 817.887 132.5 817.888 132.5C817.89 132.5 817.891 132.5 817.893 132.5C817.894 132.5 817.896 132.5 817.897 132.5C817.899 132.5 817.9 132.5 817.902 132.5C817.903 132.5 817.905 132.5 817.906 132.5C817.908 132.5 817.909 132.5 817.911 132.5C817.913 132.5 817.914 132.5 817.916 132.5C817.917 132.5 817.919 132.5 817.92 132.5C817.922 132.5 817.923 132.5 817.925 132.5C817.926 132.5 817.928 132.5 817.929 132.5C817.931 132.5 817.932 132.5 817.934 132.5C817.935 132.5 817.937 132.5 817.938 132.5C817.94 132.5 817.941 132.5 817.943 132.5C817.944 132.5 817.946 132.5 817.947 132.5C817.949 132.5 817.95 132.5 817.952 132.5C817.953 132.5 817.955 132.5 817.956 132.5C817.958 132.5 817.959 132.5 817.961 132.5C817.962 132.5 817.963 132.5 817.965 132.5C817.966 132.5 817.968 132.5 817.969 132.5C817.971 132.5 817.972 132.5 817.974 132.5C817.975 132.5 817.977 132.5 817.978 132.5C817.98 132.5 817.981 132.5 817.983 132.5C817.984 132.5 817.986 132.5 817.987 132.5C817.989 132.5 817.99 132.5 817.992 132.5C817.993 132.5 817.995 132.5 817.996 132.5C817.998 132.5 817.999 132.5 818.001 132.5C818.002 132.5 818.004 132.5 818.005 132.5C818.007 132.5 818.008 132.5 818.01 132.5C818.011 132.5 818.013 132.5 818.014 132.5C818.016 132.5 818.017 132.5 818.019 132.5C818.02 132.5 818.022 132.5 818.023 132.5C818.025 132.5 818.026 132.5 818.028 132.5C818.029 132.5 818.031 132.5 818.032 132.5C818.034 132.5 818.035 132.5 818.037 132.5C818.038 132.5 818.04 132.5 818.041 132.5C818.043 132.5 818.044 132.5 818.045 132.5C818.047 132.5 818.048 132.5 818.05 132.5C818.051 132.5 818.053 132.5 818.054 132.5C818.056 132.5 818.057 132.5 818.059 132.5C818.06 132.5 818.062 132.5 818.063 132.5C818.065 132.5 818.066 132.5 818.068 132.5C818.069 132.5 818.071 132.5 818.072 132.5C818.074 132.5 818.075 132.5 818.077 132.5C818.078 132.5 818.08 132.5 818.081 132.5C818.083 132.5 818.084 132.5 818.085 132.5C818.087 132.5 818.088 132.5 818.09 132.5C818.091 132.5 818.093 132.5 818.094 132.5C818.096 132.5 818.097 132.5 818.099 132.5C818.1 132.5 818.102 132.5 818.103 132.5C818.105 132.5 818.106 132.5 818.108 132.5C818.109 132.5 818.111 132.5 818.112 132.5C818.114 132.5 818.115 132.5 818.116 132.5C818.118 132.5 818.119 132.5 818.121 132.5C818.122 132.5 818.124 132.5 818.125 132.5C818.127 132.5 818.128 132.5 818.13 132.5C818.131 132.5 818.133 132.5 818.134 132.5C818.136 132.5 818.137 132.5 818.139 132.5C818.14 132.5 818.142 132.5 818.143 132.5C818.144 132.5 818.146 132.5 818.147 132.5C818.149 132.5 818.15 132.5 818.152 132.5C818.153 132.5 818.155 132.5 818.156 132.5C818.158 132.5 818.159 132.5 818.161 132.5C818.162 132.5 818.164 132.5 818.165 132.5C818.166 132.5 818.168 132.5 818.169 132.5C818.171 132.5 818.172 132.5 818.174 132.5C818.175 132.5 818.177 132.5 818.178 132.5C818.18 132.5 818.181 132.5 818.183 132.5C818.184 132.5 818.186 132.5 818.187 132.5C818.188 132.5 818.19 132.5 818.191 132.5C818.193 132.5 818.194 132.5 818.196 132.5C818.197 132.5 818.199 132.5 818.2 132.5C818.202 132.5 818.203 132.5 818.205 132.5C818.206 132.5 818.207 132.5 818.209 132.5C818.21 132.5 818.212 132.5 818.213 132.5C818.215 132.5 818.216 132.5 818.218 132.5C818.219 132.5 818.221 132.5 818.222 132.5C818.224 132.5 818.225 132.5 818.226 132.5C818.228 132.5 818.229 132.5 818.231 132.5C818.232 132.5 818.234 132.5 818.235 132.5C818.237 132.5 818.238 132.5 818.24 132.5C818.241 132.5 818.242 132.5 818.244 132.5C818.245 132.5 818.247 132.5 818.248 132.5C818.25 132.5 818.251 132.5 818.253 132.5C818.254 132.5 818.256 132.5 818.257 132.5C818.259 132.5 818.26 132.5 818.261 132.5C818.263 132.5 818.264 132.5 818.266 132.5C818.267 132.5 818.269 132.5 818.27 132.5C818.272 132.5 818.273 132.5 818.274 132.5C818.276 132.5 818.277 132.5 818.279 132.5C818.28 132.5 818.282 132.5 818.283 132.5C818.285 132.5 818.286 132.5 818.288 132.5C818.289 132.5 818.29 132.5 818.292 132.5C818.293 132.5 818.295 132.5 818.296 132.5C818.298 132.5 818.299 132.5 818.301 132.5C818.302 132.5 818.303 132.5 818.305 132.5C818.306 132.5 818.308 132.5 818.309 132.5C818.311 132.5 818.312 132.5 818.314 132.5C818.315 132.5 818.316 132.5 818.318 132.5C818.319 132.5 818.321 132.5 818.322 132.5C818.324 132.5 818.325 132.5 818.327 132.5C818.328 132.5 818.329 132.5 818.331 132.5C818.332 132.5 818.334 132.5 818.335 132.5C818.337 132.5 818.338 132.5 818.34 132.5C818.341 132.5 818.342 132.5 818.344 132.5C818.345 132.5 818.347 132.5 818.348 132.5C818.35 132.5 818.351 132.5 818.353 132.5C818.354 132.5 818.355 132.5 818.357 132.5C818.358 132.5 818.36 132.5 818.361 132.5C818.363 132.5 818.364 132.5 818.366 132.5C818.367 132.5 818.368 132.5 818.37 132.5C818.371 132.5 818.373 132.5 818.374 132.5C818.376 132.5 818.377 132.5 818.378 132.5C818.38 132.5 818.381 132.5 818.383 132.5C818.384 132.5 818.386 132.5 818.387 132.5C818.388 132.5 818.39 132.5 818.391 132.5C818.393 132.5 818.394 132.5 818.396 132.5C818.397 132.5 818.399 132.5 818.4 132.5C818.401 132.5 818.403 132.5 818.404 132.5C818.406 132.5 818.407 132.5 818.409 132.5C818.41 132.5 818.411 132.5 818.413 132.5C818.414 132.5 818.416 132.5 818.417 132.5C818.419 132.5 818.42 132.5 818.421 132.5C818.423 132.5 818.424 132.5 818.426 132.5C818.427 132.5 818.429 132.5 818.43 132.5C818.431 132.5 818.433 132.5 818.434 132.5C818.436 132.5 818.437 132.5 818.439 132.5C818.44 132.5 818.441 132.5 818.443 132.5C818.444 132.5 818.446 132.5 818.447 132.5C818.449 132.5 818.45 132.5 818.451 132.5C818.453 132.5 818.454 132.5 818.456 132.5C818.457 132.5 818.459 132.5 818.46 132.5C818.461 132.5 818.463 132.5 818.464 132.5C818.466 132.5 818.467 132.5 818.469 132.5C818.47 132.5 818.471 132.5 818.473 132.5C818.474 132.5 818.476 132.5 818.477 132.5C818.478 132.5 818.48 132.5 818.481 132.5C818.483 132.5 818.484 132.5 818.486 132.5C818.487 132.5 818.488 132.5 818.49 132.5C818.491 132.5 818.493 132.5 818.494 132.5C818.495 132.5 818.497 132.5 818.498 132.5C818.5 132.5 818.501 132.5 818.503 132.5C818.504 132.5 818.505 132.5 818.507 132.5C818.508 132.5 818.51 132.5 818.511 132.5C818.513 132.5 818.514 132.5 818.515 132.5C818.517 132.5 818.518 132.5 818.52 132.5C818.521 132.5 818.522 132.5 818.524 132.5C818.525 132.5 818.527 132.5 818.528 132.5C818.529 132.5 818.531 132.5 818.532 132.5C818.534 132.5 818.535 132.5 818.537 132.5C818.538 132.5 818.539 132.5 818.541 132.5C818.542 132.5 818.544 132.5 818.545 132.5C818.546 132.5 818.548 132.5 818.549 132.5C818.551 132.5 818.552 132.5 818.553 132.5C818.555 132.5 818.556 132.5 818.558 132.5C818.559 132.5 818.561 132.5 818.562 132.5C818.563 132.5 818.565 132.5 818.566 132.5C818.568 132.5 818.569 132.5 818.57 132.5C818.572 132.5 818.573 132.5 818.575 132.5C818.576 132.5 818.577 132.5 818.579 132.5C818.58 132.5 818.582 132.5 818.583 132.5C818.584 132.5 818.586 132.5 818.587 132.5C818.589 132.5 818.59 132.5 818.591 132.5C818.593 132.5 818.594 132.5 818.596 132.5C818.597 132.5 818.599 132.5 818.6 132.5C818.601 132.5 818.603 132.5 818.604 132.5C818.606 132.5 818.607 132.5 818.608 132.5C818.61 132.5 818.611 132.5 818.613 132.5C818.614 132.5 818.615 132.5 818.617 132.5C818.618 132.5 818.62 132.5 818.621 132.5C818.622 132.5 818.624 132.5 818.625 132.5C818.627 132.5 818.628 132.5 818.629 132.5C818.631 132.5 818.632 132.5 818.634 132.5C818.635 132.5 818.636 132.5 818.638 132.5C818.639 132.5 818.641 132.5 818.642 132.5C818.643 132.5 818.645 132.5 818.646 132.5C818.647 132.5 818.649 132.5 818.65 132.5C818.652 132.5 818.653 132.5 818.654 132.5C818.656 132.5 818.657 132.5 818.659 132.5C818.66 132.5 818.661 132.5 818.663 132.5C818.664 132.5 818.666 132.5 818.667 132.5C818.668 132.5 818.67 132.5 818.671 132.5C818.673 132.5 818.674 132.5 818.675 132.5C818.677 132.5 818.678 132.5 818.68 132.5C818.681 132.5 818.682 132.5 818.684 132.5C818.685 132.5 818.687 132.5 818.688 132.5C818.689 132.5 818.691 132.5 818.692 132.5C818.693 132.5 818.695 132.5 818.696 132.5C818.698 132.5 818.699 132.5 818.7 132.5C818.702 132.5 818.703 132.5 818.705 132.5C818.706 132.5 818.707 132.5 818.709 132.5C818.71 132.5 818.711 132.5 818.713 132.5C818.714 132.5 818.716 132.5 818.717 132.5C818.718 132.5 818.72 132.5 818.721 132.5C818.723 132.5 818.724 132.5 818.725 132.5C818.727 132.5 818.728 132.5 818.729 132.5C818.731 132.5 818.732 132.5 818.734 132.5C818.735 132.5 818.736 132.5 818.738 132.5C818.739 132.5 818.741 132.5 818.742 132.5C818.743 132.5 818.745 132.5 818.746 132.5C818.747 132.5 818.749 132.5 818.75 132.5C818.752 132.5 818.753 132.5 818.754 132.5C818.756 132.5 818.757 132.5 818.758 132.5C818.76 132.5 818.761 132.5 818.763 132.5C818.764 132.5 818.765 132.5 818.767 132.5C818.768 132.5 818.77 132.5 818.771 132.5C818.772 132.5 818.774 132.5 818.775 132.5C818.776 132.5 818.778 132.5 818.779 132.5C818.781 132.5 818.782 132.5 818.783 132.5C818.785 132.5 818.786 132.5 818.787 132.5C818.789 132.5 818.79 132.5 818.792 132.5C818.793 132.5 818.794 132.5 818.796 132.5C818.797 132.5 818.798 132.5 818.8 132.5C818.801 132.5 818.803 132.5 818.804 132.5C818.805 132.5 818.807 132.5 818.808 132.5C818.809 132.5 818.811 132.5 818.812 132.5C818.813 132.5 818.815 132.5 818.816 132.5C818.818 132.5 818.819 132.5 818.82 132.5C818.822 132.5 818.823 132.5 818.824 132.5C818.826 132.5 818.827 132.5 818.829 132.5C818.83 132.5 818.831 132.5 818.833 132.5C818.834 132.5 818.835 132.5 818.837 132.5C818.838 132.5 818.839 132.5 818.841 132.5C818.842 132.5 818.844 132.5 818.845 132.5C818.846 132.5 818.848 132.5 818.849 132.5C818.85 132.5 818.852 132.5 818.853 132.5C818.855 132.5 818.856 132.5 818.857 132.5C818.859 132.5 818.86 132.5 818.861 132.5C818.863 132.5 818.864 132.5 818.865 132.5C818.867 132.5 818.868 132.5 818.87 132.5C818.871 132.5 818.872 132.5 818.874 132.5C818.875 132.5 818.876 132.5 818.878 132.5C818.879 132.5 818.88 132.5 818.882 132.5C818.883 132.5 818.884 132.5 818.886 132.5C818.887 132.5 818.889 132.5 818.89 132.5C818.891 132.5 818.893 132.5 818.894 132.5C818.895 132.5 818.897 132.5 818.898 132.5C818.899 132.5 818.901 132.5 818.902 132.5C818.903 132.5 818.905 132.5 818.906 132.5C818.908 132.5 818.909 132.5 818.91 132.5C818.912 132.5 818.913 132.5 818.914 132.5C818.916 132.5 818.917 132.5 818.918 132.5C818.92 132.5 818.921 132.5 818.922 132.5C818.924 132.5 818.925 132.5 818.927 132.5C818.928 132.5 818.929 132.5 818.931 132.5C818.932 132.5 818.933 132.5 818.935 132.5C818.936 132.5 818.937 132.5 818.939 132.5C818.94 132.5 818.941 132.5 818.943 132.5C818.944 132.5 818.945 132.5 818.947 132.5C818.948 132.5 818.949 132.5 818.951 132.5C818.952 132.5 818.954 132.5 818.955 132.5C818.956 132.5 818.958 132.5 818.959 132.5C818.96 132.5 818.962 132.5 818.963 132.5C818.964 132.5 818.966 132.5 818.967 132.5C818.968 132.5 818.97 132.5 818.971 132.5C818.972 132.5 818.974 132.5 818.975 132.5C818.976 132.5 818.978 132.5 818.979 132.5C818.98 132.5 818.982 132.5 818.983 132.5C818.984 132.5 818.986 132.5 818.987 132.5C818.989 132.5 818.99 132.5 818.991 132.5C818.993 132.5 818.994 132.5 818.995 132.5C818.997 132.5 818.998 132.5 818.999 132.5C819.001 132.5 819.002 132.5 819.003 132.5C819.005 132.5 819.006 132.5 819.007 132.5C819.009 132.5 819.01 132.5 819.011 132.5C819.013 132.5 819.014 132.5 819.015 132.5C819.017 132.5 819.018 132.5 819.019 132.5C819.021 132.5 819.022 132.5 819.023 132.5C819.025 132.5 819.026 132.5 819.027 132.5C819.029 132.5 819.03 132.5 819.031 132.5C819.033 132.5 819.034 132.5 819.035 132.5C819.037 132.5 819.038 132.5 819.039 132.5C819.041 132.5 819.042 132.5 819.043 132.5C819.045 132.5 819.046 132.5 819.047 132.5C819.049 132.5 819.05 132.5 819.051 132.5C819.053 132.5 819.054 132.5 819.055 132.5C819.057 132.5 819.058 132.5 819.059 132.5C819.061 132.5 819.062 132.5 819.063 132.5C819.065 132.5 819.066 132.5 819.067 132.5C819.069 132.5 819.07 132.5 819.071 132.5C819.073 132.5 819.074 132.5 819.075 132.5C819.077 132.5 819.078 132.5 819.079 132.5C819.081 132.5 819.082 132.5 819.083 132.5C819.085 132.5 819.086 132.5 819.087 132.5C819.089 132.5 819.09 132.5 819.091 132.5C819.093 132.5 819.094 132.5 819.095 132.5C819.097 132.5 819.098 132.5 819.099 132.5C819.101 132.5 819.102 132.5 819.103 132.5C819.105 132.5 819.106 132.5 819.107 132.5C819.109 132.5 819.11 132.5 819.111 132.5C819.113 132.5 819.114 132.5 819.115 132.5C819.116 132.5 819.118 132.5 819.119 132.5C819.12 132.5 819.122 132.5 819.123 132.5C819.124 132.5 819.126 132.5 819.127 132.5C819.128 132.5 819.13 132.5 819.131 132.5C819.132 132.5 819.134 132.5 819.135 132.5C819.136 132.5 819.138 132.5 819.139 132.5C819.14 132.5 819.142 132.5 819.143 132.5C819.144 132.5 819.146 132.5 819.147 132.5C819.148 132.5 819.15 132.5 819.151 132.5C819.152 132.5 819.153 132.5 819.155 132.5C819.156 132.5 819.157 132.5 819.159 132.5C819.16 132.5 819.161 132.5 819.163 132.5C819.164 132.5 819.165 132.5 819.167 132.5C819.168 132.5 819.169 132.5 819.171 132.5C819.172 132.5 819.173 132.5 819.174 132.5C819.176 132.5 819.177 132.5 819.178 132.5C819.18 132.5 819.181 132.5 819.182 132.5C819.184 132.5 819.185 132.5 819.186 132.5C819.188 132.5 819.189 132.5 819.19 132.5C819.192 132.5 819.193 132.5 819.194 132.5C819.195 132.5 819.197 132.5 819.198 132.5C819.199 132.5 819.201 132.5 819.202 132.5C819.203 132.5 819.205 132.5 819.206 132.5C819.207 132.5 819.209 132.5 819.21 132.5C819.211 132.5 819.212 132.5 819.214 132.5C819.215 132.5 819.216 132.5 819.218 132.5C819.219 132.5 819.22 132.5 819.222 132.5C819.223 132.5 819.224 132.5 819.226 132.5C819.227 132.5 819.228 132.5 819.229 132.5C819.231 132.5 819.232 132.5 819.233 132.5C819.235 132.5 819.236 132.5 819.237 132.5C819.239 132.5 819.24 132.5 819.241 132.5C819.243 132.5 819.244 132.5 819.245 132.5V128.5C819.244 128.5 819.243 128.5 819.241 128.5C819.24 128.5 819.239 128.5 819.237 128.5C819.236 128.5 819.235 128.5 819.233 128.5C819.232 128.5 819.231 128.5 819.229 128.5C819.228 128.5 819.227 128.5 819.226 128.5C819.224 128.5 819.223 128.5 819.222 128.5C819.22 128.5 819.219 128.5 819.218 128.5C819.216 128.5 819.215 128.5 819.214 128.5C819.212 128.5 819.211 128.5 819.21 128.5C819.209 128.5 819.207 128.5 819.206 128.5C819.205 128.5 819.203 128.5 819.202 128.5C819.201 128.5 819.199 128.5 819.198 128.5C819.197 128.5 819.195 128.5 819.194 128.5C819.193 128.5 819.192 128.5 819.19 128.5C819.189 128.5 819.188 128.5 819.186 128.5C819.185 128.5 819.184 128.5 819.182 128.5C819.181 128.5 819.18 128.5 819.178 128.5C819.177 128.5 819.176 128.5 819.174 128.5C819.173 128.5 819.172 128.5 819.171 128.5C819.169 128.5 819.168 128.5 819.167 128.5C819.165 128.5 819.164 128.5 819.163 128.5C819.161 128.5 819.16 128.5 819.159 128.5C819.157 128.5 819.156 128.5 819.155 128.5C819.153 128.5 819.152 128.5 819.151 128.5C819.15 128.5 819.148 128.5 819.147 128.5C819.146 128.5 819.144 128.5 819.143 128.5C819.142 128.5 819.14 128.5 819.139 128.5C819.138 128.5 819.136 128.5 819.135 128.5C819.134 128.5 819.132 128.5 819.131 128.5C819.13 128.5 819.128 128.5 819.127 128.5C819.126 128.5 819.124 128.5 819.123 128.5C819.122 128.5 819.12 128.5 819.119 128.5C819.118 128.5 819.116 128.5 819.115 128.5C819.114 128.5 819.113 128.5 819.111 128.5C819.11 128.5 819.109 128.5 819.107 128.5C819.106 128.5 819.105 128.5 819.103 128.5C819.102 128.5 819.101 128.5 819.099 128.5C819.098 128.5 819.097 128.5 819.095 128.5C819.094 128.5 819.093 128.5 819.091 128.5C819.09 128.5 819.089 128.5 819.087 128.5C819.086 128.5 819.085 128.5 819.083 128.5C819.082 128.5 819.081 128.5 819.079 128.5C819.078 128.5 819.077 128.5 819.075 128.5C819.074 128.5 819.073 128.5 819.071 128.5C819.07 128.5 819.069 128.5 819.067 128.5C819.066 128.5 819.065 128.5 819.063 128.5C819.062 128.5 819.061 128.5 819.059 128.5C819.058 128.5 819.057 128.5 819.055 128.5C819.054 128.5 819.053 128.5 819.051 128.5C819.05 128.5 819.049 128.5 819.047 128.5C819.046 128.5 819.045 128.5 819.043 128.5C819.042 128.5 819.041 128.5 819.039 128.5C819.038 128.5 819.037 128.5 819.035 128.5C819.034 128.5 819.033 128.5 819.031 128.5C819.03 128.5 819.029 128.5 819.027 128.5C819.026 128.5 819.025 128.5 819.023 128.5C819.022 128.5 819.021 128.5 819.019 128.5C819.018 128.5 819.017 128.5 819.015 128.5C819.014 128.5 819.013 128.5 819.011 128.5C819.01 128.5 819.009 128.5 819.007 128.5C819.006 128.5 819.005 128.5 819.003 128.5C819.002 128.5 819.001 128.5 818.999 128.5C818.998 128.5 818.997 128.5 818.995 128.5C818.994 128.5 818.993 128.5 818.991 128.5C818.99 128.5 818.989 128.5 818.987 128.5C818.986 128.5 818.984 128.5 818.983 128.5C818.982 128.5 818.98 128.5 818.979 128.5C818.978 128.5 818.976 128.5 818.975 128.5C818.974 128.5 818.972 128.5 818.971 128.5C818.97 128.5 818.968 128.5 818.967 128.5C818.966 128.5 818.964 128.5 818.963 128.5C818.962 128.5 818.96 128.5 818.959 128.5C818.958 128.5 818.956 128.5 818.955 128.5C818.954 128.5 818.952 128.5 818.951 128.5C818.949 128.5 818.948 128.5 818.947 128.5C818.945 128.5 818.944 128.5 818.943 128.5C818.941 128.5 818.94 128.5 818.939 128.5C818.937 128.5 818.936 128.5 818.935 128.5C818.933 128.5 818.932 128.5 818.931 128.5C818.929 128.5 818.928 128.5 818.927 128.5C818.925 128.5 818.924 128.5 818.922 128.5C818.921 128.5 818.92 128.5 818.918 128.5C818.917 128.5 818.916 128.5 818.914 128.5C818.913 128.5 818.912 128.5 818.91 128.5C818.909 128.5 818.908 128.5 818.906 128.5C818.905 128.5 818.903 128.5 818.902 128.5C818.901 128.5 818.899 128.5 818.898 128.5C818.897 128.5 818.895 128.5 818.894 128.5C818.893 128.5 818.891 128.5 818.89 128.5C818.889 128.5 818.887 128.5 818.886 128.5C818.884 128.5 818.883 128.5 818.882 128.5C818.88 128.5 818.879 128.5 818.878 128.5C818.876 128.5 818.875 128.5 818.874 128.5C818.872 128.5 818.871 128.5 818.87 128.5C818.868 128.5 818.867 128.5 818.865 128.5C818.864 128.5 818.863 128.5 818.861 128.5C818.86 128.5 818.859 128.5 818.857 128.5C818.856 128.5 818.855 128.5 818.853 128.5C818.852 128.5 818.85 128.5 818.849 128.5C818.848 128.5 818.846 128.5 818.845 128.5C818.844 128.5 818.842 128.5 818.841 128.5C818.839 128.5 818.838 128.5 818.837 128.5C818.835 128.5 818.834 128.5 818.833 128.5C818.831 128.5 818.83 128.5 818.829 128.5C818.827 128.5 818.826 128.5 818.824 128.5C818.823 128.5 818.822 128.5 818.82 128.5C818.819 128.5 818.818 128.5 818.816 128.5C818.815 128.5 818.813 128.5 818.812 128.5C818.811 128.5 818.809 128.5 818.808 128.5C818.807 128.5 818.805 128.5 818.804 128.5C818.803 128.5 818.801 128.5 818.8 128.5C818.798 128.5 818.797 128.5 818.796 128.5C818.794 128.5 818.793 128.5 818.792 128.5C818.79 128.5 818.789 128.5 818.787 128.5C818.786 128.5 818.785 128.5 818.783 128.5C818.782 128.5 818.781 128.5 818.779 128.5C818.778 128.5 818.776 128.5 818.775 128.5C818.774 128.5 818.772 128.5 818.771 128.5C818.77 128.5 818.768 128.5 818.767 128.5C818.765 128.5 818.764 128.5 818.763 128.5C818.761 128.5 818.76 128.5 818.758 128.5C818.757 128.5 818.756 128.5 818.754 128.5C818.753 128.5 818.752 128.5 818.75 128.5C818.749 128.5 818.747 128.5 818.746 128.5C818.745 128.5 818.743 128.5 818.742 128.5C818.741 128.5 818.739 128.5 818.738 128.5C818.736 128.5 818.735 128.5 818.734 128.5C818.732 128.5 818.731 128.5 818.729 128.5C818.728 128.5 818.727 128.5 818.725 128.5C818.724 128.5 818.723 128.5 818.721 128.5C818.72 128.5 818.718 128.5 818.717 128.5C818.716 128.5 818.714 128.5 818.713 128.5C818.711 128.5 818.71 128.5 818.709 128.5C818.707 128.5 818.706 128.5 818.705 128.5C818.703 128.5 818.702 128.5 818.7 128.5C818.699 128.5 818.698 128.5 818.696 128.5C818.695 128.5 818.693 128.5 818.692 128.5C818.691 128.5 818.689 128.5 818.688 128.5C818.687 128.5 818.685 128.5 818.684 128.5C818.682 128.5 818.681 128.5 818.68 128.5C818.678 128.5 818.677 128.5 818.675 128.5C818.674 128.5 818.673 128.5 818.671 128.5C818.67 128.5 818.668 128.5 818.667 128.5C818.666 128.5 818.664 128.5 818.663 128.5C818.661 128.5 818.66 128.5 818.659 128.5C818.657 128.5 818.656 128.5 818.654 128.5C818.653 128.5 818.652 128.5 818.65 128.5C818.649 128.5 818.647 128.5 818.646 128.5C818.645 128.5 818.643 128.5 818.642 128.5C818.641 128.5 818.639 128.5 818.638 128.5C818.636 128.5 818.635 128.5 818.634 128.5C818.632 128.5 818.631 128.5 818.629 128.5C818.628 128.5 818.627 128.5 818.625 128.5C818.624 128.5 818.622 128.5 818.621 128.5C818.62 128.5 818.618 128.5 818.617 128.5C818.615 128.5 818.614 128.5 818.613 128.5C818.611 128.5 818.61 128.5 818.608 128.5C818.607 128.5 818.606 128.5 818.604 128.5C818.603 128.5 818.601 128.5 818.6 128.5C818.599 128.5 818.597 128.5 818.596 128.5C818.594 128.5 818.593 128.5 818.591 128.5C818.59 128.5 818.589 128.5 818.587 128.5C818.586 128.5 818.584 128.5 818.583 128.5C818.582 128.5 818.58 128.5 818.579 128.5C818.577 128.5 818.576 128.5 818.575 128.5C818.573 128.5 818.572 128.5 818.57 128.5C818.569 128.5 818.568 128.5 818.566 128.5C818.565 128.5 818.563 128.5 818.562 128.5C818.561 128.5 818.559 128.5 818.558 128.5C818.556 128.5 818.555 128.5 818.553 128.5C818.552 128.5 818.551 128.5 818.549 128.5C818.548 128.5 818.546 128.5 818.545 128.5C818.544 128.5 818.542 128.5 818.541 128.5C818.539 128.5 818.538 128.5 818.537 128.5C818.535 128.5 818.534 128.5 818.532 128.5C818.531 128.5 818.529 128.5 818.528 128.5C818.527 128.5 818.525 128.5 818.524 128.5C818.522 128.5 818.521 128.5 818.52 128.5C818.518 128.5 818.517 128.5 818.515 128.5C818.514 128.5 818.513 128.5 818.511 128.5C818.51 128.5 818.508 128.5 818.507 128.5C818.505 128.5 818.504 128.5 818.503 128.5C818.501 128.5 818.5 128.5 818.498 128.5C818.497 128.5 818.495 128.5 818.494 128.5C818.493 128.5 818.491 128.5 818.49 128.5C818.488 128.5 818.487 128.5 818.486 128.5C818.484 128.5 818.483 128.5 818.481 128.5C818.48 128.5 818.478 128.5 818.477 128.5C818.476 128.5 818.474 128.5 818.473 128.5C818.471 128.5 818.47 128.5 818.469 128.5C818.467 128.5 818.466 128.5 818.464 128.5C818.463 128.5 818.461 128.5 818.46 128.5C818.459 128.5 818.457 128.5 818.456 128.5C818.454 128.5 818.453 128.5 818.451 128.5C818.45 128.5 818.449 128.5 818.447 128.5C818.446 128.5 818.444 128.5 818.443 128.5C818.441 128.5 818.44 128.5 818.439 128.5C818.437 128.5 818.436 128.5 818.434 128.5C818.433 128.5 818.431 128.5 818.43 128.5C818.429 128.5 818.427 128.5 818.426 128.5C818.424 128.5 818.423 128.5 818.421 128.5C818.42 128.5 818.419 128.5 818.417 128.5C818.416 128.5 818.414 128.5 818.413 128.5C818.411 128.5 818.41 128.5 818.409 128.5C818.407 128.5 818.406 128.5 818.404 128.5C818.403 128.5 818.401 128.5 818.4 128.5C818.399 128.5 818.397 128.5 818.396 128.5C818.394 128.5 818.393 128.5 818.391 128.5C818.39 128.5 818.388 128.5 818.387 128.5C818.386 128.5 818.384 128.5 818.383 128.5C818.381 128.5 818.38 128.5 818.378 128.5C818.377 128.5 818.376 128.5 818.374 128.5C818.373 128.5 818.371 128.5 818.37 128.5C818.368 128.5 818.367 128.5 818.366 128.5C818.364 128.5 818.363 128.5 818.361 128.5C818.36 128.5 818.358 128.5 818.357 128.5C818.355 128.5 818.354 128.5 818.353 128.5C818.351 128.5 818.35 128.5 818.348 128.5C818.347 128.5 818.345 128.5 818.344 128.5C818.342 128.5 818.341 128.5 818.34 128.5C818.338 128.5 818.337 128.5 818.335 128.5C818.334 128.5 818.332 128.5 818.331 128.5C818.329 128.5 818.328 128.5 818.327 128.5C818.325 128.5 818.324 128.5 818.322 128.5C818.321 128.5 818.319 128.5 818.318 128.5C818.316 128.5 818.315 128.5 818.314 128.5C818.312 128.5 818.311 128.5 818.309 128.5C818.308 128.5 818.306 128.5 818.305 128.5C818.303 128.5 818.302 128.5 818.301 128.5C818.299 128.5 818.298 128.5 818.296 128.5C818.295 128.5 818.293 128.5 818.292 128.5C818.29 128.5 818.289 128.5 818.288 128.5C818.286 128.5 818.285 128.5 818.283 128.5C818.282 128.5 818.28 128.5 818.279 128.5C818.277 128.5 818.276 128.5 818.274 128.5C818.273 128.5 818.272 128.5 818.27 128.5C818.269 128.5 818.267 128.5 818.266 128.5C818.264 128.5 818.263 128.5 818.261 128.5C818.26 128.5 818.259 128.5 818.257 128.5C818.256 128.5 818.254 128.5 818.253 128.5C818.251 128.5 818.25 128.5 818.248 128.5C818.247 128.5 818.245 128.5 818.244 128.5C818.242 128.5 818.241 128.5 818.24 128.5C818.238 128.5 818.237 128.5 818.235 128.5C818.234 128.5 818.232 128.5 818.231 128.5C818.229 128.5 818.228 128.5 818.226 128.5C818.225 128.5 818.224 128.5 818.222 128.5C818.221 128.5 818.219 128.5 818.218 128.5C818.216 128.5 818.215 128.5 818.213 128.5C818.212 128.5 818.21 128.5 818.209 128.5C818.207 128.5 818.206 128.5 818.205 128.5C818.203 128.5 818.202 128.5 818.2 128.5C818.199 128.5 818.197 128.5 818.196 128.5C818.194 128.5 818.193 128.5 818.191 128.5C818.19 128.5 818.188 128.5 818.187 128.5C818.186 128.5 818.184 128.5 818.183 128.5C818.181 128.5 818.18 128.5 818.178 128.5C818.177 128.5 818.175 128.5 818.174 128.5C818.172 128.5 818.171 128.5 818.169 128.5C818.168 128.5 818.166 128.5 818.165 128.5C818.164 128.5 818.162 128.5 818.161 128.5C818.159 128.5 818.158 128.5 818.156 128.5C818.155 128.5 818.153 128.5 818.152 128.5C818.15 128.5 818.149 128.5 818.147 128.5C818.146 128.5 818.144 128.5 818.143 128.5C818.142 128.5 818.14 128.5 818.139 128.5C818.137 128.5 818.136 128.5 818.134 128.5C818.133 128.5 818.131 128.5 818.13 128.5C818.128 128.5 818.127 128.5 818.125 128.5C818.124 128.5 818.122 128.5 818.121 128.5C818.119 128.5 818.118 128.5 818.116 128.5C818.115 128.5 818.114 128.5 818.112 128.5C818.111 128.5 818.109 128.5 818.108 128.5C818.106 128.5 818.105 128.5 818.103 128.5C818.102 128.5 818.1 128.5 818.099 128.5C818.097 128.5 818.096 128.5 818.094 128.5C818.093 128.5 818.091 128.5 818.09 128.5C818.088 128.5 818.087 128.5 818.085 128.5C818.084 128.5 818.083 128.5 818.081 128.5C818.08 128.5 818.078 128.5 818.077 128.5C818.075 128.5 818.074 128.5 818.072 128.5C818.071 128.5 818.069 128.5 818.068 128.5C818.066 128.5 818.065 128.5 818.063 128.5C818.062 128.5 818.06 128.5 818.059 128.5C818.057 128.5 818.056 128.5 818.054 128.5C818.053 128.5 818.051 128.5 818.05 128.5C818.048 128.5 818.047 128.5 818.045 128.5C818.044 128.5 818.043 128.5 818.041 128.5C818.04 128.5 818.038 128.5 818.037 128.5C818.035 128.5 818.034 128.5 818.032 128.5C818.031 128.5 818.029 128.5 818.028 128.5C818.026 128.5 818.025 128.5 818.023 128.5C818.022 128.5 818.02 128.5 818.019 128.5C818.017 128.5 818.016 128.5 818.014 128.5C818.013 128.5 818.011 128.5 818.01 128.5C818.008 128.5 818.007 128.5 818.005 128.5C818.004 128.5 818.002 128.5 818.001 128.5C817.999 128.5 817.998 128.5 817.996 128.5C817.995 128.5 817.993 128.5 817.992 128.5C817.99 128.5 817.989 128.5 817.987 128.5C817.986 128.5 817.984 128.5 817.983 128.5C817.981 128.5 817.98 128.5 817.978 128.5C817.977 128.5 817.975 128.5 817.974 128.5C817.972 128.5 817.971 128.5 817.969 128.5C817.968 128.5 817.966 128.5 817.965 128.5C817.963 128.5 817.962 128.5 817.961 128.5C817.959 128.5 817.958 128.5 817.956 128.5C817.955 128.5 817.953 128.5 817.952 128.5C817.95 128.5 817.949 128.5 817.947 128.5C817.946 128.5 817.944 128.5 817.943 128.5C817.941 128.5 817.94 128.5 817.938 128.5C817.937 128.5 817.935 128.5 817.934 128.5C817.932 128.5 817.931 128.5 817.929 128.5C817.928 128.5 817.926 128.5 817.925 128.5C817.923 128.5 817.922 128.5 817.92 128.5C817.919 128.5 817.917 128.5 817.916 128.5C817.914 128.5 817.913 128.5 817.911 128.5C817.909 128.5 817.908 128.5 817.906 128.5C817.905 128.5 817.903 128.5 817.902 128.5C817.9 128.5 817.899 128.5 817.897 128.5C817.896 128.5 817.894 128.5 817.893 128.5C817.891 128.5 817.89 128.5 817.888 128.5C817.887 128.5 817.885 128.5 817.884 128.5C817.882 128.5 817.881 128.5 817.879 128.5C817.878 128.5 817.876 128.5 817.875 128.5C817.873 128.5 817.872 128.5 817.87 128.5C817.869 128.5 817.867 128.5 817.866 128.5C817.864 128.5 817.863 128.5 817.861 128.5C817.86 128.5 817.858 128.5 817.857 128.5C817.855 128.5 817.854 128.5 817.852 128.5C817.851 128.5 817.849 128.5 817.848 128.5C817.846 128.5 817.845 128.5 817.843 128.5C817.842 128.5 817.84 128.5 817.839 128.5C817.837 128.5 817.836 128.5 817.834 128.5C817.833 128.5 817.831 128.5 817.829 128.5C817.828 128.5 817.826 128.5 817.825 128.5C817.823 128.5 817.822 128.5 817.82 128.5C817.819 128.5 817.817 128.5 817.816 128.5C817.814 128.5 817.813 128.5 817.811 128.5C817.81 128.5 817.808 128.5 817.807 128.5C817.805 128.5 817.804 128.5 817.802 128.5C817.801 128.5 817.799 128.5 817.798 128.5C817.796 128.5 817.795 128.5 817.793 128.5C817.792 128.5 817.79 128.5 817.789 128.5C817.787 128.5 817.785 128.5 817.784 128.5C817.782 128.5 817.781 128.5 817.779 128.5C817.778 128.5 817.776 128.5 817.775 128.5C817.773 128.5 817.772 128.5 817.77 128.5C817.769 128.5 817.767 128.5 817.766 128.5C817.764 128.5 817.763 128.5 817.761 128.5C817.76 128.5 817.758 128.5 817.757 128.5C817.755 128.5 817.753 128.5 817.752 128.5C817.75 128.5 817.749 128.5 817.747 128.5C817.746 128.5 817.744 128.5 817.743 128.5C817.741 128.5 817.74 128.5 817.738 128.5C817.737 128.5 817.735 128.5 817.734 128.5C817.732 128.5 817.731 128.5 817.729 128.5C817.728 128.5 817.726 128.5 817.724 128.5C817.723 128.5 817.721 128.5 817.72 128.5C817.718 128.5 817.717 128.5 817.715 128.5C817.714 128.5 817.712 128.5 817.711 128.5C817.709 128.5 817.708 128.5 817.706 128.5C817.705 128.5 817.703 128.5 817.701 128.5C817.7 128.5 817.698 128.5 817.697 128.5C817.695 128.5 817.694 128.5 817.692 128.5C817.691 128.5 817.689 128.5 817.688 128.5C817.686 128.5 817.685 128.5 817.683 128.5C817.682 128.5 817.68 128.5 817.678 128.5C817.677 128.5 817.675 128.5 817.674 128.5C817.672 128.5 817.671 128.5 817.669 128.5C817.668 128.5 817.666 128.5 817.665 128.5C817.663 128.5 817.662 128.5 817.66 128.5C817.658 128.5 817.657 128.5 817.655 128.5C817.654 128.5 817.652 128.5 817.651 128.5C817.649 128.5 817.648 128.5 817.646 128.5C817.645 128.5 817.643 128.5 817.642 128.5C817.64 128.5 817.638 128.5 817.637 128.5C817.635 128.5 817.634 128.5 817.632 128.5C817.631 128.5 817.629 128.5 817.628 128.5C817.626 128.5 817.625 128.5 817.623 128.5C817.621 128.5 817.62 128.5 817.618 128.5C817.617 128.5 817.615 128.5 817.614 128.5C817.612 128.5 817.611 128.5 817.609 128.5C817.608 128.5 817.606 128.5 817.604 128.5C817.603 128.5 817.601 128.5 817.6 128.5C817.598 128.5 817.597 128.5 817.595 128.5C817.594 128.5 817.592 128.5 817.591 128.5C817.589 128.5 817.587 128.5 817.586 128.5C817.584 128.5 817.583 128.5 817.581 128.5C817.58 128.5 817.578 128.5 817.577 128.5C817.575 128.5 817.574 128.5 817.572 128.5C817.57 128.5 817.569 128.5 817.567 128.5C817.566 128.5 817.564 128.5 817.563 128.5C817.561 128.5 817.56 128.5 817.558 128.5C817.556 128.5 817.555 128.5 817.553 128.5C817.552 128.5 817.55 128.5 817.549 128.5C817.547 128.5 817.546 128.5 817.544 128.5C817.542 128.5 817.541 128.5 817.539 128.5C817.538 128.5 817.536 128.5 817.535 128.5C817.533 128.5 817.532 128.5 817.53 128.5C817.528 128.5 817.527 128.5 817.525 128.5C817.524 128.5 817.522 128.5 817.521 128.5C817.519 128.5 817.518 128.5 817.516 128.5C817.514 128.5 817.513 128.5 817.511 128.5C817.51 128.5 817.508 128.5 817.507 128.5C817.505 128.5 817.504 128.5 817.502 128.5C817.5 128.5 817.499 128.5 817.497 128.5C817.496 128.5 817.494 128.5 817.493 128.5C817.491 128.5 817.489 128.5 817.488 128.5C817.486 128.5 817.485 128.5 817.483 128.5C817.482 128.5 817.48 128.5 817.479 128.5C817.477 128.5 817.475 128.5 817.474 128.5C817.472 128.5 817.471 128.5 817.469 128.5C817.468 128.5 817.466 128.5 817.464 128.5C817.463 128.5 817.461 128.5 817.46 128.5C817.458 128.5 817.457 128.5 817.455 128.5C817.454 128.5 817.452 128.5 817.45 128.5C817.449 128.5 817.447 128.5 817.446 128.5C817.444 128.5 817.443 128.5 817.441 128.5C817.439 128.5 817.438 128.5 817.436 128.5C817.435 128.5 817.433 128.5 817.432 128.5C817.43 128.5 817.428 128.5 817.427 128.5C817.425 128.5 817.424 128.5 817.422 128.5C817.421 128.5 817.419 128.5 817.417 128.5C817.416 128.5 817.414 128.5 817.413 128.5C817.411 128.5 817.41 128.5 817.408 128.5C817.406 128.5 817.405 128.5 817.403 128.5C817.402 128.5 817.4 128.5 817.399 128.5C817.397 128.5 817.395 128.5 817.394 128.5C817.392 128.5 817.391 128.5 817.389 128.5C817.388 128.5 817.386 128.5 817.384 128.5C817.383 128.5 817.381 128.5 817.38 128.5C817.378 128.5 817.376 128.5 817.375 128.5C817.373 128.5 817.372 128.5 817.37 128.5C817.369 128.5 817.367 128.5 817.365 128.5C817.364 128.5 817.362 128.5 817.361 128.5C817.359 128.5 817.358 128.5 817.356 128.5C817.354 128.5 817.353 128.5 817.351 128.5C817.35 128.5 817.348 128.5 817.346 128.5C817.345 128.5 817.343 128.5 817.342 128.5C817.34 128.5 817.339 128.5 817.337 128.5C817.335 128.5 817.334 128.5 817.332 128.5C817.331 128.5 817.329 128.5 817.327 128.5C817.326 128.5 817.324 128.5 817.323 128.5C817.321 128.5 817.32 128.5 817.318 128.5C817.316 128.5 817.315 128.5 817.313 128.5C817.312 128.5 817.31 128.5 817.308 128.5C817.307 128.5 817.305 128.5 817.304 128.5C817.302 128.5 817.301 128.5 817.299 128.5C817.297 128.5 817.296 128.5 817.294 128.5C817.293 128.5 817.291 128.5 817.289 128.5C817.288 128.5 817.286 128.5 817.285 128.5C817.283 128.5 817.281 128.5 817.28 128.5C817.278 128.5 817.277 128.5 817.275 128.5C817.274 128.5 817.272 128.5 817.27 128.5C817.269 128.5 817.267 128.5 817.266 128.5C817.264 128.5 817.262 128.5 817.261 128.5C817.259 128.5 817.258 128.5 817.256 128.5C817.254 128.5 817.253 128.5 817.251 128.5C817.25 128.5 817.248 128.5 817.246 128.5C817.245 128.5 817.243 128.5 817.242 128.5C817.24 128.5 817.238 128.5 817.237 128.5C817.235 128.5 817.234 128.5 817.232 128.5C817.23 128.5 817.229 128.5 817.227 128.5C817.226 128.5 817.224 128.5 817.223 128.5C817.221 128.5 817.219 128.5 817.218 128.5C817.216 128.5 817.215 128.5 817.213 128.5C817.211 128.5 817.21 128.5 817.208 128.5C817.207 128.5 817.205 128.5 817.203 128.5C817.202 128.5 817.2 128.5 817.199 128.5C817.197 128.5 817.195 128.5 817.194 128.5C817.192 128.5 817.191 128.5 817.189 128.5C817.187 128.5 817.186 128.5 817.184 128.5C817.182 128.5 817.181 128.5 817.179 128.5C817.178 128.5 817.176 128.5 817.174 128.5C817.173 128.5 817.171 128.5 817.17 128.5C817.168 128.5 817.166 128.5 817.165 128.5C817.163 128.5 817.162 128.5 817.16 128.5C817.158 128.5 817.157 128.5 817.155 128.5C817.154 128.5 817.152 128.5 817.15 128.5C817.149 128.5 817.147 128.5 817.146 128.5C817.144 128.5 817.142 128.5 817.141 128.5C817.139 128.5 817.138 128.5 817.136 128.5C817.134 128.5 817.133 128.5 817.131 128.5C817.129 128.5 817.128 128.5 817.126 128.5C817.125 128.5 817.123 128.5 817.121 128.5C817.12 128.5 817.118 128.5 817.117 128.5C817.115 128.5 817.113 128.5 817.112 128.5C817.11 128.5 817.109 128.5 817.107 128.5C817.105 128.5 817.104 128.5 817.102 128.5C817.1 128.5 817.099 128.5 817.097 128.5C817.096 128.5 817.094 128.5 817.092 128.5C817.091 128.5 817.089 128.5 817.088 128.5C817.086 128.5 817.084 128.5 817.083 128.5C817.081 128.5 817.079 128.5 817.078 128.5C817.076 128.5 817.075 128.5 817.073 128.5C817.071 128.5 817.07 128.5 817.068 128.5C817.067 128.5 817.065 128.5 817.063 128.5C817.062 128.5 817.06 128.5 817.058 128.5C817.057 128.5 817.055 128.5 817.054 128.5C817.052 128.5 817.05 128.5 817.049 128.5C817.047 128.5 817.045 128.5 817.044 128.5C817.042 128.5 817.041 128.5 817.039 128.5C817.037 128.5 817.036 128.5 817.034 128.5C817.032 128.5 817.031 128.5 817.029 128.5C817.028 128.5 817.026 128.5 817.024 128.5C817.023 128.5 817.021 128.5 817.02 128.5C817.018 128.5 817.016 128.5 817.015 128.5C817.013 128.5 817.011 128.5 817.01 128.5C817.008 128.5 817.007 128.5 817.005 128.5C817.003 128.5 817.002 128.5 817 128.5C816.998 128.5 816.997 128.5 816.995 128.5V132.5ZM819.245 132.5C821.17 132.5 822.96 132.254 824.274 131.465L822.216 128.035C821.864 128.246 820.986 128.5 819.245 128.5V132.5ZM824.14 131.539C826.123 130.547 826.745 128.508 826.745 126.5H822.745C822.745 127.151 822.645 127.528 822.554 127.724C822.481 127.883 822.416 127.928 822.351 127.961L824.14 131.539ZM826.745 126.5C826.745 125.283 826.466 124.094 825.748 123.088C825.022 122.071 823.984 121.434 822.82 121.084L821.67 124.916C822.172 125.066 822.385 125.262 822.493 125.412C822.607 125.573 822.745 125.884 822.745 126.5H826.745ZM822.878 121.103C821.203 120.544 818.641 120.025 815.292 119.522L814.698 123.478C818.016 123.975 820.287 124.456 821.613 124.897L822.878 121.103ZM815.216 119.512C806.277 118.519 797.336 117.112 788.394 115.29L787.596 119.21C796.654 121.055 805.714 122.481 814.774 123.488L815.216 119.512ZM788.402 115.292C779.733 113.493 771.827 110.718 764.672 106.978L762.819 110.522C770.33 114.449 778.59 117.341 787.589 119.208L788.402 115.292ZM764.672 106.978C757.636 103.3 751.976 98.1963 747.665 91.65L744.325 93.85C749.014 100.97 755.188 106.534 762.819 110.522L764.672 106.978ZM747.684 91.6789C743.615 85.2616 741.495 76.7528 741.495 66H737.495C737.495 77.2472 739.709 86.5717 744.306 93.8211L747.684 91.6789ZM741.495 66C741.495 50.6354 745.09 38.7086 752.057 29.9994L748.933 27.5006C741.234 37.1248 737.495 50.0312 737.495 66H741.495ZM752.054 30.0028C759.28 21.0104 769.014 14.5518 781.347 10.6572L780.143 6.84283C767.142 10.9482 756.71 17.8229 748.936 27.4972L752.054 30.0028ZM781.37 10.6498C793.803 6.55996 807.755 4.5 823.245 4.5V0.5C807.402 0.5 793.02 2.6067 780.12 6.85014L781.37 10.6498ZM823.245 4.5C836.285 4.5 849.92 5.73801 864.151 8.22025L864.839 4.27974C850.404 1.76199 836.538 0.5 823.245 0.5V4.5ZM864.174 8.22401C878.422 10.5436 892.506 13.7744 906.425 17.9169L907.566 14.0831C893.484 9.89224 879.234 6.6231 864.816 4.27598L864.174 8.22401ZM905.005 15.8036L897.505 91.8036L901.485 92.1964L908.985 16.1964L905.005 15.8036ZM1060.86 142.109C1070.94 132.024 1076.61 118.345 1076.61 104.082H1072.61C1072.61 117.284 1067.37 129.945 1058.03 139.281L1060.86 142.109ZM1076.61 104.082C1076.61 89.8189 1070.94 76.14 1060.86 66.0545L1058.03 68.883C1067.37 78.2183 1072.61 90.8797 1072.61 104.082H1076.61ZM1060.86 66.0545C1050.77 55.9691 1037.09 50.3031 1022.83 50.3031V54.3031C1036.03 54.3031 1048.7 59.5476 1058.03 68.883L1060.86 66.0545ZM1022.83 50.3031C1008.57 50.3031 994.89 55.9691 984.805 66.0545L987.633 68.883C996.968 59.5476 1009.63 54.3031 1022.83 54.3031V50.3031ZM984.805 66.0545L926.586 124.273L929.414 127.102L987.633 68.883L984.805 66.0545ZM926 125.688V199H930V125.688H926ZM928 201H1001.31V197H928V201ZM1002.73 200.412L1060.86 142.107L1058.03 139.283L999.896 197.588L1002.73 200.412ZM1021.46 102.711L926.586 197.586L929.414 200.414L1024.29 105.539L1021.46 102.711ZM1035.81 162.5H962.5V166.5H1035.81V162.5Z" fill="#F3F3F3"/>
</svg>
